<?xml version="1.0" encoding="UTF-8"?>
<svg xmlns="http://www.w3.org/2000/svg" xmlns:xlink="http://www.w3.org/1999/xlink"
     width="3000" height="1764" viewBox="0 0 3000 1764">
<defs>
</defs>
<rect x="0" y="0" width="3060" height="1764" fill="#444444ff" />
<path d="M30.0,12 L30.0,3000" stroke="white" stroke-width="1" stroke-opacity="0.2" fill="white" />
<path d="M277.8915583926461,12 L277.8915583926461,3000" stroke="white" stroke-width="1" stroke-opacity="0.2" fill="white" />
<path d="M525.7831167852922,12 L525.7831167852922,3000" stroke="white" stroke-width="1" stroke-opacity="0.2" fill="white" />
<path d="M773.6746751779384,12 L773.6746751779384,3000" stroke="white" stroke-width="1" stroke-opacity="0.2" fill="white" />
<path d="M1021.5662335705845,12 L1021.5662335705845,3000" stroke="white" stroke-width="1" stroke-opacity="0.2" fill="white" />
<path d="M1269.4577919632306,12 L1269.4577919632306,3000" stroke="white" stroke-width="1" stroke-opacity="0.2" fill="white" />
<path d="M1517.3493503558768,12 L1517.3493503558768,3000" stroke="white" stroke-width="1" stroke-opacity="0.2" fill="white" />
<path d="M1765.2409087485228,12 L1765.2409087485228,3000" stroke="white" stroke-width="1" stroke-opacity="0.2" fill="white" />
<path d="M2013.132467141169,12 L2013.132467141169,3000" stroke="white" stroke-width="1" stroke-opacity="0.2" fill="white" />
<path d="M2261.024025533815,12 L2261.024025533815,3000" stroke="white" stroke-width="1" stroke-opacity="0.2" fill="white" />
<path d="M2508.9155839264613,12 L2508.9155839264613,3000" stroke="white" stroke-width="1" stroke-opacity="0.2" fill="white" />
<path d="M2756.8071423191072,12 L2756.8071423191072,3000" stroke="white" stroke-width="1" stroke-opacity="0.2" fill="white" />
<path d="M44.87752027406907,36 L731.2901747124029,36" stroke="white" stroke-width="12" />
<text x="48.87752027406907" y="40" font-size="10" font-family="Roboto" fill="#111111ff">JOB::job1 - 60.0162s -&gt;  2829.02s</text>
<path d="M44.87752027406907,48 L731.2892454633062,48" stroke="#f4d229" stroke-width="4" stroke-opacity="0.8" stroke-linecap="butt" />
<path d="M44.877984684030224,54 L626.8991762017522,54" stroke="#42f5bc" stroke-width="4" stroke-opacity="0.8" stroke-linecap="butt" />
<text x="156.4382432529544" y="70" font-size="12" font-family="Roboto" fill="#ddddddff">R#1 - 510.05s</text>
<path d="M156.4382432529544,74 L156.4382432529544,458" stroke="white" stroke-width="1" fill="white" />
<path d="M156.4382432529544,78 L229.70886650593226,78" stroke="#38a816" stroke-width="4" stroke-opacity="0.8" stroke-linecap="butt" />
<path d="M156.4387076629156,84 L229.71464737434545,84" stroke="#38a816" stroke-width="4" stroke-opacity="0.8" stroke-linecap="butt" />
<path d="M156.43917207287674,90 L229.70886650593226,90" stroke="#38a816" stroke-width="4" stroke-opacity="0.8" stroke-linecap="butt" />
<path d="M156.4396364828379,96 L229.71464737434545,96" stroke="#38a816" stroke-width="4" stroke-opacity="0.8" stroke-linecap="butt" />
<path d="M156.44010089279908,102 L229.76768352692048,102" stroke="#38a816" stroke-width="4" stroke-opacity="0.8" stroke-linecap="butt" />
<path d="M156.44056530276026,108 L229.770015715031,108" stroke="#38a816" stroke-width="4" stroke-opacity="0.8" stroke-linecap="butt" />
<path d="M156.44102971272142,114 L229.76768352692048,114" stroke="#38a816" stroke-width="4" stroke-opacity="0.8" stroke-linecap="butt" />
<path d="M156.44149412268257,120 L229.770015715031,120" stroke="#38a816" stroke-width="4" stroke-opacity="0.8" stroke-linecap="butt" />
<path d="M229.772105978563,126 L288.8882120146837,126" stroke="#3774c4" stroke-width="4" stroke-opacity="0.8" stroke-linecap="butt" />
<path d="M229.77117715864065,132 L288.7432946169497,132" stroke="#3774c4" stroke-width="4" stroke-opacity="0.8" stroke-linecap="butt" />
<path d="M229.77164156860184,138 L288.8614920610512,138" stroke="#3774c4" stroke-width="4" stroke-opacity="0.8" stroke-linecap="butt" />
<path d="M229.77257038852417,144 L288.8951721941812,144" stroke="#3774c4" stroke-width="4" stroke-opacity="0.8" stroke-linecap="butt" />
<path d="M229.77303479848533,150 L288.89642098029174,150" stroke="#3774c4" stroke-width="4" stroke-opacity="0.8" stroke-linecap="butt" />
<path d="M229.7734992084465,156 L288.8974723646745,156" stroke="#3774c4" stroke-width="4" stroke-opacity="0.8" stroke-linecap="butt" />
<path d="M229.77489243833,162 L288.8981714698337,162" stroke="#3774c4" stroke-width="4" stroke-opacity="0.8" stroke-linecap="butt" />
<path d="M229.77396361840766,168 L288.8984036748143,168" stroke="#3774c4" stroke-width="4" stroke-opacity="0.8" stroke-linecap="butt" />
<path d="M229.77442802836885,174 L288.8981714698337,174" stroke="#3774c4" stroke-width="4" stroke-opacity="0.8" stroke-linecap="butt" />
<path d="M229.77535684829118,180 L288.8981714698337,180" stroke="#3774c4" stroke-width="4" stroke-opacity="0.8" stroke-linecap="butt" />
<path d="M229.77582125825234,186 L288.8981714698337,186" stroke="#3774c4" stroke-width="4" stroke-opacity="0.8" stroke-linecap="butt" />
<path d="M229.77628566821352,192 L288.8981714698337,192" stroke="#3774c4" stroke-width="4" stroke-opacity="0.8" stroke-linecap="butt" />
<path d="M288.89933291344335,198 L324.22616712731985,198" stroke="#6d1d8f" stroke-width="4" stroke-opacity="0.8" stroke-linecap="butt" />
<path d="M288.8997973234045,204 L324.22663174492834,204" stroke="#6d1d8f" stroke-width="4" stroke-opacity="0.8" stroke-linecap="butt" />
<path d="M324.227793188538,210 L324.27191414464187,210" stroke="#ff6038" stroke-width="4" stroke-opacity="0.8" stroke-linecap="round" />
<path d="M324.22825759849917,216 L324.27237855460305,216" stroke="#ff6038" stroke-width="4" stroke-opacity="0.8" stroke-linecap="round" />
<path d="M324.22872200846035,222 L324.2728429645642,222" stroke="#ff6038" stroke-width="4" stroke-opacity="0.8" stroke-linecap="round" />
<path d="M324.2291864184215,228 L324.27330737452536,228" stroke="#ff6038" stroke-width="4" stroke-opacity="0.8" stroke-linecap="round" />
<path d="M324.27516547494747,234 L324.3220730164304,234" stroke="#b52a35" stroke-width="4" stroke-opacity="0.8" stroke-linecap="round" />
<path d="M324.27562988490865,240 L324.3225374263916,240" stroke="#b52a35" stroke-width="4" stroke-opacity="0.8" stroke-linecap="round" />
<path d="M324.274468818135,246 L324.2749332699669,246" stroke="#b52a35" stroke-width="4" stroke-opacity="0.8" stroke-linecap="round" />
<path d="M324.2749332280962,252 L324.27539767992806,252" stroke="#b52a35" stroke-width="4" stroke-opacity="0.8" stroke-linecap="round" />
<text x="429.119422313533" y="268" font-size="12" font-family="Roboto" fill="#ddddddff">R#2 - 1610.1s</text>
<path d="M429.119422313533,272 L429.119422313533,476" stroke="white" stroke-width="1" fill="white" />
<path d="M429.119422313533,276 L454.2049912830765,276" stroke="#fcba03" stroke-width="4" stroke-opacity="0.8" stroke-linecap="butt" />
<path d="M429.1198867234942,282 L454.2371318668009,282" stroke="#fcba03" stroke-width="4" stroke-opacity="0.8" stroke-linecap="butt" />
<path d="M429.12035113345536,288 L454.23759820281356,288" stroke="#fcba03" stroke-width="4" stroke-opacity="0.8" stroke-linecap="butt" />
<path d="M429.1208155434165,294 L454.23759820281356,294" stroke="#fcba03" stroke-width="4" stroke-opacity="0.8" stroke-linecap="butt" />
<path d="M454.2387596464232,300 L469.93137041977803,300" stroke="#38a816" stroke-width="4" stroke-opacity="0.8" stroke-linecap="butt" />
<path d="M454.23922405638433,306 L469.9319918501512,306" stroke="#38a816" stroke-width="4" stroke-opacity="0.8" stroke-linecap="butt" />
<path d="M454.2396884663455,312 L469.9340175062324,312" stroke="#38a816" stroke-width="4" stroke-opacity="0.8" stroke-linecap="butt" />
<path d="M454.2401528763067,318 L469.9357140233578,318" stroke="#38a816" stroke-width="4" stroke-opacity="0.8" stroke-linecap="butt" />
<path d="M454.2406172862679,324 L469.96310148136007,324" stroke="#38a816" stroke-width="4" stroke-opacity="0.8" stroke-linecap="butt" />
<path d="M454.24108169622906,330 L469.96310148136007,330" stroke="#38a816" stroke-width="4" stroke-opacity="0.8" stroke-linecap="butt" />
<path d="M454.2415461061902,336 L469.96310148136007,336" stroke="#38a816" stroke-width="4" stroke-opacity="0.8" stroke-linecap="butt" />
<path d="M454.24201051615137,342 L469.96310148136007,342" stroke="#38a816" stroke-width="4" stroke-opacity="0.8" stroke-linecap="butt" />
<path d="M469.9661205648144,348 L626.7766292891317,348" stroke="#3774c4" stroke-width="4" stroke-opacity="0.8" stroke-linecap="butt" />
<path d="M469.9642629249697,354 L626.5595987000765,354" stroke="#3774c4" stroke-width="4" stroke-opacity="0.8" stroke-linecap="butt" />
<path d="M469.9647273349309,360 L626.7519483443216,360" stroke="#3774c4" stroke-width="4" stroke-opacity="0.8" stroke-linecap="butt" />
<path d="M469.9651917448921,366 L626.7645161510102,366" stroke="#3774c4" stroke-width="4" stroke-opacity="0.8" stroke-linecap="butt" />
<path d="M469.9656561548532,372 L626.7718867137343,372" stroke="#3774c4" stroke-width="4" stroke-opacity="0.8" stroke-linecap="butt" />
<path d="M469.96658497477557,378 L626.7772483321992,378" stroke="#3774c4" stroke-width="4" stroke-opacity="0.8" stroke-linecap="butt" />
<path d="M469.9689070245814,384 L626.7781910634739,384" stroke="#3774c4" stroke-width="4" stroke-opacity="0.8" stroke-linecap="butt" />
<path d="M469.96704938473675,390 L626.7784123114978,390" stroke="#3774c4" stroke-width="4" stroke-opacity="0.8" stroke-linecap="butt" />
<path d="M469.9675137946979,396 L626.7774834915756,396" stroke="#3774c4" stroke-width="4" stroke-opacity="0.8" stroke-linecap="butt" />
<path d="M469.96797820465906,402 L626.7774834915756,402" stroke="#3774c4" stroke-width="4" stroke-opacity="0.8" stroke-linecap="butt" />
<path d="M469.96844261462024,408 L626.7777266535127,408" stroke="#3774c4" stroke-width="4" stroke-opacity="0.8" stroke-linecap="butt" />
<path d="M469.96937143454255,414 L626.7781910634739,414" stroke="#3774c4" stroke-width="4" stroke-opacity="0.8" stroke-linecap="butt" />
<path d="M626.780745820708,420 L626.7960720612264,420" stroke="#ff6038" stroke-width="4" stroke-opacity="0.8" stroke-linecap="round" />
<path d="M626.7812102306692,426 L626.7965364711876,426" stroke="#ff6038" stroke-width="4" stroke-opacity="0.8" stroke-linecap="round" />
<path d="M626.7816746406304,432 L626.7970008811487,432" stroke="#ff6038" stroke-width="4" stroke-opacity="0.8" stroke-linecap="round" />
<path d="M626.7821390505916,438 L626.7974652911099,438" stroke="#ff6038" stroke-width="4" stroke-opacity="0.8" stroke-linecap="round" />
<path d="M626.7793525070834,444 L626.7798169589151,444" stroke="#ff6038" stroke-width="4" stroke-opacity="0.8" stroke-linecap="round" />
<path d="M626.7798169170446,450 L626.7802813688763,450" stroke="#ff6038" stroke-width="4" stroke-opacity="0.8" stroke-linecap="round" />
<path d="M626.7800491638958,456 L626.7805136157275,456" stroke="#ff6038" stroke-width="4" stroke-opacity="0.8" stroke-linecap="round" />
<path d="M626.780513573857,462 L626.7809780256887,462" stroke="#ff6038" stroke-width="4" stroke-opacity="0.8" stroke-linecap="round" />
<path d="M626.7986267347194,468 L626.898014967496,468" stroke="#b52a35" stroke-width="4" stroke-opacity="0.8" stroke-linecap="round" />
<path d="M626.7990911446806,474 L626.8984793774571,474" stroke="#b52a35" stroke-width="4" stroke-opacity="0.8" stroke-linecap="round" />
<path d="M986.8659065760854,492 L2746.8969004129694,492" stroke="white" stroke-width="12" />
<text x="990.8659065760854" y="496" font-size="10" font-family="Roboto" fill="#111111ff">JOB::job2 - 3860.02s -&gt;  10960.0s</text>
<path d="M986.8663709860466,504 L2528.098631763858,504" stroke="#42f5bc" stroke-width="4" stroke-opacity="0.8" stroke-linecap="butt" />
<path d="M986.8659065760854,510 L2746.8959711638727,510" stroke="#f4d229" stroke-width="4" stroke-opacity="0.8" stroke-linecap="butt" />
<text x="986.8700867263127" y="526" font-size="12" font-family="Roboto" fill="#ddddddff">R#1 - 3860.0s</text>
<path d="M986.8700867263127,530 L986.8700867263127,710" stroke="white" stroke-width="1" fill="white" />
<path d="M986.8700867263127,534 L1979.3061550342888,534" stroke="#3774c4" stroke-width="4" stroke-opacity="0.8" stroke-linecap="butt" />
<path d="M986.8705511362739,540 L1979.3511958722706,540" stroke="#3774c4" stroke-width="4" stroke-opacity="0.8" stroke-linecap="butt" />
<path d="M986.8710155462351,546 L1979.3652221534846,546" stroke="#3774c4" stroke-width="4" stroke-opacity="0.8" stroke-linecap="butt" />
<path d="M986.8696223163515,552 L1978.9856838343705,552" stroke="#3774c4" stroke-width="4" stroke-opacity="0.8" stroke-linecap="butt" />
<path d="M1979.3668480070553,558 L2527.7693676518247,558" stroke="#6d1d8f" stroke-width="4" stroke-opacity="0.8" stroke-linecap="butt" />
<path d="M1979.3663835970942,564 L2527.5685496726915,564" stroke="#6d1d8f" stroke-width="4" stroke-opacity="0.8" stroke-linecap="butt" />
<path d="M2527.7705290954345,570 L2527.7709935472667,570" stroke="#b52a35" stroke-width="4" stroke-opacity="0.8" stroke-linecap="round" />
<path d="M2527.770993505396,576 L2527.771457957228,576" stroke="#b52a35" stroke-width="4" stroke-opacity="0.8" stroke-linecap="round" />
<path d="M2527.771225752247,582 L2527.859003212634,582" stroke="#b52a35" stroke-width="4" stroke-opacity="0.8" stroke-linecap="round" />
<path d="M2527.7716901622084,588 L2527.859467622595,588" stroke="#b52a35" stroke-width="4" stroke-opacity="0.8" stroke-linecap="round" />
<text x="986.8719443661573" y="604" font-size="12" font-family="Roboto" fill="#ddddddff">R#2 - 3860.0s</text>
<path d="M986.8719443661573,608 L986.8719443661573,728" stroke="white" stroke-width="1" fill="white" />
<path d="M986.8719443661573,612 L1979.3737595231692,612" stroke="#3774c4" stroke-width="4" stroke-opacity="0.8" stroke-linecap="butt" />
<path d="M986.8724087761185,618 L1979.3752003410257,618" stroke="#3774c4" stroke-width="4" stroke-opacity="0.8" stroke-linecap="butt" />
<path d="M986.8714799561961,624 L1979.3709880011545,624" stroke="#3774c4" stroke-width="4" stroke-opacity="0.8" stroke-linecap="butt" />
<path d="M986.8728731860797,630 L1979.3759928172756,630" stroke="#3774c4" stroke-width="4" stroke-opacity="0.8" stroke-linecap="butt" />
<path d="M1979.377396707049,636 L2528.0062094920577,636" stroke="#6d1d8f" stroke-width="4" stroke-opacity="0.8" stroke-linecap="butt" />
<path d="M1979.376932297088,642 L2528.004876770368,642" stroke="#6d1d8f" stroke-width="4" stroke-opacity="0.8" stroke-linecap="butt" />
<path d="M2528.007835345629,648 L2528.0082997974605,648" stroke="#b52a35" stroke-width="4" stroke-opacity="0.8" stroke-linecap="round" />
<path d="M2528.0085320024414,654 L2528.096309462828,654" stroke="#b52a35" stroke-width="4" stroke-opacity="0.8" stroke-linecap="round" />
<path d="M2528.0073709356675,660 L2528.0078353874997,660" stroke="#b52a35" stroke-width="4" stroke-opacity="0.8" stroke-linecap="round" />
<path d="M2528.00806759248,666 L2528.0958450528665,666" stroke="#b52a35" stroke-width="4" stroke-opacity="0.8" stroke-linecap="round" />
<text x="986.873802006002" y="682" font-size="12" font-family="Roboto" fill="#ddddddff">R#3 - 3860.0s</text>
<path d="M986.873802006002,686 L986.873802006002,746" stroke="white" stroke-width="1" fill="white" />
<path d="M986.873802006002,690 L1979.3764083206179,690" stroke="#3774c4" stroke-width="4" stroke-opacity="0.8" stroke-linecap="butt" />
<path d="M986.8747308259244,696 L1979.3767000921073,696" stroke="#3774c4" stroke-width="4" stroke-opacity="0.8" stroke-linecap="butt" />
<path d="M986.8742664159632,702 L1979.3767000921073,702" stroke="#3774c4" stroke-width="4" stroke-opacity="0.8" stroke-linecap="butt" />
<path d="M986.8733375960409,708 L1979.3764083206179,708" stroke="#3774c4" stroke-width="4" stroke-opacity="0.8" stroke-linecap="butt" />
<path d="M1979.378325945678,714 L2528.0066067288044,714" stroke="#6d1d8f" stroke-width="4" stroke-opacity="0.8" stroke-linecap="butt" />
<path d="M1979.378790355639,720 L2528.0066067288044,720" stroke="#6d1d8f" stroke-width="4" stroke-opacity="0.8" stroke-linecap="butt" />
<path d="M2528.010157479176,726 L2528.097934939563,726" stroke="#b52a35" stroke-width="4" stroke-opacity="0.8" stroke-linecap="round" />
<path d="M2528.0094608223635,732 L2528.0099252741957,732" stroke="#b52a35" stroke-width="4" stroke-opacity="0.8" stroke-linecap="round" />
<path d="M2528.008996412402,738 L2528.0094608642344,738" stroke="#b52a35" stroke-width="4" stroke-opacity="0.8" stroke-linecap="round" />
<path d="M2528.009693069215,744 L2528.0974705296017,744" stroke="#b52a35" stroke-width="4" stroke-opacity="0.8" stroke-linecap="round" />
<path d="M986.8666036097338,762 L2970.0,762" stroke="white" stroke-width="12" />
<text x="990.8666036097338" y="766" font-size="10" font-family="Roboto" fill="#111111ff">JOB::job3 - 3860.02s -&gt;  11860.0s</text>
<path d="M986.867068019695,774 L2533.3028605576746,774" stroke="#42f5bc" stroke-width="4" stroke-opacity="0.8" stroke-linecap="butt" />
<path d="M986.8666036097338,780 L2969.999070750903,780" stroke="#f4d229" stroke-width="4" stroke-opacity="0.8" stroke-linecap="butt" />
<text x="996.8066501062484" y="796" font-size="12" font-family="Roboto" fill="#ddddddff">R#1 - 3900.1s</text>
<path d="M996.8066501062484,800 L996.8066501062484,1376" stroke="white" stroke-width="1" fill="white" />
<path d="M996.8066501062484,804 L1985.0943560364808,804" stroke="#fcba03" stroke-width="4" stroke-opacity="0.8" stroke-linecap="butt" />
<path d="M996.8075789261707,810 L1985.0966139379898,810" stroke="#fcba03" stroke-width="4" stroke-opacity="0.8" stroke-linecap="butt" />
<path d="M996.8071145162096,816 L1985.0966139379898,816" stroke="#fcba03" stroke-width="4" stroke-opacity="0.8" stroke-linecap="butt" />
<path d="M996.8080433361318,822 L1985.0968648770454,822" stroke="#fcba03" stroke-width="4" stroke-opacity="0.8" stroke-linecap="butt" />
<path d="M1985.098026320655,828 L2530.421409775041,828" stroke="#38a816" stroke-width="4" stroke-opacity="0.8" stroke-linecap="butt" />
<path d="M1985.098490730616,834 L2530.448555397114,834" stroke="#38a816" stroke-width="4" stroke-opacity="0.8" stroke-linecap="butt" />
<path d="M1985.0989551405773,840 L2530.448555397114,840" stroke="#38a816" stroke-width="4" stroke-opacity="0.8" stroke-linecap="butt" />
<path d="M1985.0994195505384,846 L2530.448555397114,846" stroke="#38a816" stroke-width="4" stroke-opacity="0.8" stroke-linecap="butt" />
<path d="M2530.4520389742715,852 L2530.4641141985176,852" stroke="#ff6038" stroke-width="4" stroke-opacity="0.8" stroke-linecap="round" />
<path d="M2530.452503384233,858 L2530.464578608479,858" stroke="#ff6038" stroke-width="4" stroke-opacity="0.8" stroke-linecap="round" />
<path d="M2530.4497168407242,864 L2530.450181292556,864" stroke="#ff6038" stroke-width="4" stroke-opacity="0.8" stroke-linecap="round" />
<path d="M2530.4501812506855,870 L2530.4506457025172,870" stroke="#ff6038" stroke-width="4" stroke-opacity="0.8" stroke-linecap="round" />
<path d="M2530.450413497537,876 L2530.4508779493685,876" stroke="#ff6038" stroke-width="4" stroke-opacity="0.8" stroke-linecap="round" />
<path d="M2530.450877907498,882 L2530.45134235933,882" stroke="#ff6038" stroke-width="4" stroke-opacity="0.8" stroke-linecap="round" />
<path d="M2530.4511101543494,888 L2530.4631853785954,888" stroke="#ff6038" stroke-width="4" stroke-opacity="0.8" stroke-linecap="round" />
<path d="M2530.4515745643102,894 L2530.4636497885567,894" stroke="#ff6038" stroke-width="4" stroke-opacity="0.8" stroke-linecap="round" />
<text x="1006.722777270622" y="910" font-size="12" font-family="Roboto" fill="#ddddddff">R#2 - 3940.1s</text>
<path d="M1006.722777270622,914 L1006.722777270622,1394" stroke="white" stroke-width="1" fill="white" />
<path d="M1006.722777270622,918 L1989.16530930828,918" stroke="#fcba03" stroke-width="4" stroke-opacity="0.8" stroke-linecap="butt" />
<path d="M1006.7232416805832,924 L1989.1668822122706,924" stroke="#fcba03" stroke-width="4" stroke-opacity="0.8" stroke-linecap="butt" />
<path d="M1006.7237060905444,930 L1989.1668822122706,930" stroke="#fcba03" stroke-width="4" stroke-opacity="0.8" stroke-linecap="butt" />
<path d="M1006.7241705005055,936 L1989.1668822122706,936" stroke="#fcba03" stroke-width="4" stroke-opacity="0.8" stroke-linecap="butt" />
<path d="M1989.1685080658413,942 L2532.1549289291042,942" stroke="#38a816" stroke-width="4" stroke-opacity="0.8" stroke-linecap="butt" />
<path d="M1989.1680436558802,948 L2532.129808932138,948" stroke="#38a816" stroke-width="4" stroke-opacity="0.8" stroke-linecap="butt" />
<path d="M1989.1689724758025,954 L2532.1549289291042,954" stroke="#38a816" stroke-width="4" stroke-opacity="0.8" stroke-linecap="butt" />
<path d="M1989.1694368857636,960 L2532.1549289291042,960" stroke="#38a816" stroke-width="4" stroke-opacity="0.8" stroke-linecap="butt" />
<path d="M2532.157483686339,966 L2532.1695589105852,966" stroke="#ff6038" stroke-width="4" stroke-opacity="0.8" stroke-linecap="round" />
<path d="M2532.1579480963005,972 L2532.1700233205465,972" stroke="#ff6038" stroke-width="4" stroke-opacity="0.8" stroke-linecap="round" />
<path d="M2532.158412506262,978 L2532.170487730508,978" stroke="#ff6038" stroke-width="4" stroke-opacity="0.8" stroke-linecap="round" />
<path d="M2532.1588769162227,984 L2532.170952140469,984" stroke="#ff6038" stroke-width="4" stroke-opacity="0.8" stroke-linecap="round" />
<path d="M2532.156090372714,990 L2532.156554824546,990" stroke="#ff6038" stroke-width="4" stroke-opacity="0.8" stroke-linecap="round" />
<path d="M2532.1565547826754,996 L2532.1570192345075,996" stroke="#ff6038" stroke-width="4" stroke-opacity="0.8" stroke-linecap="round" />
<path d="M2532.1567870295266,1002 L2532.157251481359,1002" stroke="#ff6038" stroke-width="4" stroke-opacity="0.8" stroke-linecap="round" />
<path d="M2532.157251439488,1008 L2532.15771589132,1008" stroke="#ff6038" stroke-width="4" stroke-opacity="0.8" stroke-linecap="round" />
<text x="1016.6393688449568" y="1024" font-size="12" font-family="Roboto" fill="#ddddddff">R#3 - 3980.1s</text>
<path d="M1016.6393688449568,1028 L1016.6393688449568,1412" stroke="white" stroke-width="1" fill="white" />
<path d="M1016.6393688449568,1032 L1991.852914335325,1032" stroke="#fcba03" stroke-width="4" stroke-opacity="0.8" stroke-linecap="butt" />
<path d="M1016.639833254918,1038 L1991.852914335325,1038" stroke="#fcba03" stroke-width="4" stroke-opacity="0.8" stroke-linecap="butt" />
<path d="M1016.6402976648792,1044 L1991.852914335325,1044" stroke="#fcba03" stroke-width="4" stroke-opacity="0.8" stroke-linecap="butt" />
<path d="M1016.6389044349957,1050 L1991.8519009245408,1050" stroke="#fcba03" stroke-width="4" stroke-opacity="0.8" stroke-linecap="butt" />
<path d="M1991.855004598857,1056 L2532.906063853212,1056" stroke="#38a816" stroke-width="4" stroke-opacity="0.8" stroke-linecap="butt" />
<path d="M1991.8545401888957,1062 L2532.906063853212,1062" stroke="#38a816" stroke-width="4" stroke-opacity="0.8" stroke-linecap="butt" />
<path d="M1991.8540757789347,1068 L2532.8810264648923,1068" stroke="#38a816" stroke-width="4" stroke-opacity="0.8" stroke-linecap="butt" />
<path d="M1991.855469008818,1074 L2532.906063853212,1074" stroke="#38a816" stroke-width="4" stroke-opacity="0.8" stroke-linecap="butt" />
<path d="M2532.9079219536343,1080 L2532.9083864054664,1080" stroke="#ff6038" stroke-width="4" stroke-opacity="0.8" stroke-linecap="round" />
<path d="M2532.9072252968217,1086 L2532.907689748654,1086" stroke="#ff6038" stroke-width="4" stroke-opacity="0.8" stroke-linecap="round" />
<path d="M2532.9100118403303,1092 L2532.9220870645763,1092" stroke="#ff6038" stroke-width="4" stroke-opacity="0.8" stroke-linecap="round" />
<path d="M2532.907689706783,1098 L2532.9081541586147,1098" stroke="#ff6038" stroke-width="4" stroke-opacity="0.8" stroke-linecap="round" />
<path d="M2532.909547430369,1104 L2532.9216226546155,1104" stroke="#ff6038" stroke-width="4" stroke-opacity="0.8" stroke-linecap="round" />
<path d="M2532.909083020408,1110 L2532.921158244654,1110" stroke="#ff6038" stroke-width="4" stroke-opacity="0.8" stroke-linecap="round" />
<path d="M2532.908618610447,1116 L2532.920693834693,1116" stroke="#ff6038" stroke-width="4" stroke-opacity="0.8" stroke-linecap="round" />
<path d="M2532.9083863635956,1122 L2532.9088508154273,1122" stroke="#ff6038" stroke-width="4" stroke-opacity="0.8" stroke-linecap="round" />
<text x="1026.5564248292528" y="1138" font-size="12" font-family="Roboto" fill="#ddddddff">R#4 - 4020.1s</text>
<path d="M1026.5564248292528,1142 L1026.5564248292528,1430" stroke="white" stroke-width="1" fill="white" />
<path d="M1026.5564248292528,1146 L1993.484087183436,1146" stroke="#fcba03" stroke-width="4" stroke-opacity="0.8" stroke-linecap="butt" />
<path d="M1026.5559604192918,1152 L1993.484087183436,1152" stroke="#fcba03" stroke-width="4" stroke-opacity="0.8" stroke-linecap="butt" />
<path d="M1026.5554960093305,1158 L1993.484087183436,1158" stroke="#fcba03" stroke-width="4" stroke-opacity="0.8" stroke-linecap="butt" />
<path d="M1026.5550315993692,1164 L1993.4834932617757,1164" stroke="#fcba03" stroke-width="4" stroke-opacity="0.8" stroke-linecap="butt" />
<path d="M1993.486641856929,1170 L2533.1955676686166,1170" stroke="#38a816" stroke-width="4" stroke-opacity="0.8" stroke-linecap="butt" />
<path d="M1993.485713037007,1176 L2533.1953023199712,1176" stroke="#38a816" stroke-width="4" stroke-opacity="0.8" stroke-linecap="butt" />
<path d="M1993.486177446968,1182 L2533.1955676686166,1182" stroke="#38a816" stroke-width="4" stroke-opacity="0.8" stroke-linecap="butt" />
<path d="M1993.4852486270456,1188 L2533.1953023199712,1188" stroke="#38a816" stroke-width="4" stroke-opacity="0.8" stroke-linecap="butt" />
<path d="M2533.1978901790008,1194 L2533.1983546308325,1194" stroke="#ff6038" stroke-width="4" stroke-opacity="0.8" stroke-linecap="round" />
<path d="M2533.197193522188,1200 L2533.19765797402,1200" stroke="#ff6038" stroke-width="4" stroke-opacity="0.8" stroke-linecap="round" />
<path d="M2533.1995156557355,1206 L2533.2115909945733,1206" stroke="#ff6038" stroke-width="4" stroke-opacity="0.8" stroke-linecap="round" />
<path d="M2533.196729112227,1212 L2533.1971935640586,1212" stroke="#ff6038" stroke-width="4" stroke-opacity="0.8" stroke-linecap="round" />
<path d="M2533.199051245774,1218 L2533.211126670557,1218" stroke="#ff6038" stroke-width="4" stroke-opacity="0.8" stroke-linecap="round" />
<path d="M2533.198586835813,1224 L2533.2106623092955,1224" stroke="#ff6038" stroke-width="4" stroke-opacity="0.8" stroke-linecap="round" />
<path d="M2533.198122425852,1230 L2533.2101978927235,1230" stroke="#ff6038" stroke-width="4" stroke-opacity="0.8" stroke-linecap="round" />
<path d="M2533.1974257690395,1236 L2533.197890220871,1236" stroke="#ff6038" stroke-width="4" stroke-opacity="0.8" stroke-linecap="round" />
<text x="1036.471158763743" y="1252" font-size="12" font-family="Roboto" fill="#ddddddff">R#5 - 4060.1s</text>
<path d="M1036.471158763743,1256 L1036.471158763743,1448" stroke="white" stroke-width="1" fill="white" />
<path d="M1036.471158763743,1260 L1994.3185199916497,1260" stroke="#fcba03" stroke-width="4" stroke-opacity="0.8" stroke-linecap="butt" />
<path d="M1036.4720875836651,1266 L1994.3188067457568,1266" stroke="#fcba03" stroke-width="4" stroke-opacity="0.8" stroke-linecap="butt" />
<path d="M1036.4725519936264,1272 L1994.3188067457568,1272" stroke="#fcba03" stroke-width="4" stroke-opacity="0.8" stroke-linecap="butt" />
<path d="M1036.471623173704,1278 L1994.3188067457568,1278" stroke="#fcba03" stroke-width="4" stroke-opacity="0.8" stroke-linecap="butt" />
<path d="M1994.3208970092885,1284 L2533.27792781664,1284" stroke="#38a816" stroke-width="4" stroke-opacity="0.8" stroke-linecap="butt" />
<path d="M1994.3204325993274,1290 L2533.27792781664,1290" stroke="#38a816" stroke-width="4" stroke-opacity="0.8" stroke-linecap="butt" />
<path d="M1994.3199681893661,1296 L2533.27792781664,1296" stroke="#38a816" stroke-width="4" stroke-opacity="0.8" stroke-linecap="butt" />
<path d="M1994.3213614192498,1302 L2533.27792781664,1302" stroke="#38a816" stroke-width="4" stroke-opacity="0.8" stroke-linecap="butt" />
<path d="M2533.281875803759,1308 L2533.2938042075302,1308" stroke="#ff6038" stroke-width="4" stroke-opacity="0.8" stroke-linecap="round" />
<path d="M2533.279553670211,1314 L2533.280018122043,1314" stroke="#ff6038" stroke-width="4" stroke-opacity="0.8" stroke-linecap="round" />
<path d="M2533.2814113937975,1320 L2533.2933397975694,1320" stroke="#ff6038" stroke-width="4" stroke-opacity="0.8" stroke-linecap="round" />
<path d="M2533.27908926025,1326 L2533.279553712082,1326" stroke="#ff6038" stroke-width="4" stroke-opacity="0.8" stroke-linecap="round" />
<path d="M2533.280946983836,1332 L2533.2928547264487,1332" stroke="#ff6038" stroke-width="4" stroke-opacity="0.8" stroke-linecap="round" />
<path d="M2533.280482573875,1338 L2533.2925579457687,1338" stroke="#ff6038" stroke-width="4" stroke-opacity="0.8" stroke-linecap="round" />
<path d="M2533.2802503270236,1344 L2533.280714778856,1344" stroke="#ff6038" stroke-width="4" stroke-opacity="0.8" stroke-linecap="round" />
<path d="M2533.2797859170623,1350 L2533.2802503688945,1350" stroke="#ff6038" stroke-width="4" stroke-opacity="0.8" stroke-linecap="round" />
<text x="1046.3872859281164" y="1366" font-size="12" font-family="Roboto" fill="#ddddddff">R#6 - 4100.1s</text>
<path d="M1046.3872859281164,1370 L1046.3872859281164,1466" stroke="white" stroke-width="1" fill="white" />
<path d="M1046.3872859281164,1374 L1994.582771836699,1374" stroke="#fcba03" stroke-width="4" stroke-opacity="0.8" stroke-linecap="butt" />
<path d="M1046.388679158,1380 L1994.582771836699,1380" stroke="#fcba03" stroke-width="4" stroke-opacity="0.8" stroke-linecap="butt" />
<path d="M1046.388214748039,1386 L1994.582771836699,1386" stroke="#fcba03" stroke-width="4" stroke-opacity="0.8" stroke-linecap="butt" />
<path d="M1046.3877503380777,1392 L1994.582771836699,1392" stroke="#fcba03" stroke-width="4" stroke-opacity="0.8" stroke-linecap="butt" />
<path d="M1994.585326510192,1398 L2533.2861405220146,1398" stroke="#38a816" stroke-width="4" stroke-opacity="0.8" stroke-linecap="butt" />
<path d="M1994.584862100231,1404 L2533.2861405220146,1404" stroke="#38a816" stroke-width="4" stroke-opacity="0.8" stroke-linecap="butt" />
<path d="M1994.5843976902697,1410 L2533.2861405220146,1410" stroke="#38a816" stroke-width="4" stroke-opacity="0.8" stroke-linecap="butt" />
<path d="M1994.5839332803087,1416 L2533.2861405220146,1416" stroke="#38a816" stroke-width="4" stroke-opacity="0.8" stroke-linecap="butt" />
<path d="M2533.2877663755858,1422 L2533.2882308274175,1422" stroke="#ff6038" stroke-width="4" stroke-opacity="0.8" stroke-linecap="round" />
<path d="M2533.290088509133,1428 L2533.302163733379,1428" stroke="#ff6038" stroke-width="4" stroke-opacity="0.8" stroke-linecap="round" />
<path d="M2533.2873019656245,1434 L2533.2877664174566,1434" stroke="#ff6038" stroke-width="4" stroke-opacity="0.8" stroke-linecap="round" />
<path d="M2533.2896240991718,1440 L2533.3016993234182,1440" stroke="#ff6038" stroke-width="4" stroke-opacity="0.8" stroke-linecap="round" />
<path d="M2533.289159689211,1446 L2533.3012351018756,1446" stroke="#ff6038" stroke-width="4" stroke-opacity="0.8" stroke-linecap="round" />
<path d="M2533.2886952792496,1452 L2533.3007706919143,1452" stroke="#ff6038" stroke-width="4" stroke-opacity="0.8" stroke-linecap="round" />
<path d="M2533.2884630323983,1458 L2533.28892748423,1458" stroke="#ff6038" stroke-width="4" stroke-opacity="0.8" stroke-linecap="round" />
<path d="M2533.287998622437,1464 L2533.288463074269,1464" stroke="#ff6038" stroke-width="4" stroke-opacity="0.8" stroke-linecap="round" />
</svg>