<?xml version="1.0" encoding="UTF-8"?>
<svg xmlns="http://www.w3.org/2000/svg" xmlns:xlink="http://www.w3.org/1999/xlink"
     width="3000" height="1602" viewBox="0 0 3000 1602">
<defs>
</defs>
<rect x="0" y="0" width="3060" height="1602" fill="#444444ff" />
<path d="M30.0,12 L30.0,3000" stroke="white" stroke-width="1" stroke-opacity="0.2" fill="white" />
<path d="M277.8915583926461,12 L277.8915583926461,3000" stroke="white" stroke-width="1" stroke-opacity="0.2" fill="white" />
<path d="M525.7831167852922,12 L525.7831167852922,3000" stroke="white" stroke-width="1" stroke-opacity="0.2" fill="white" />
<path d="M773.6746751779384,12 L773.6746751779384,3000" stroke="white" stroke-width="1" stroke-opacity="0.2" fill="white" />
<path d="M1021.5662335705845,12 L1021.5662335705845,3000" stroke="white" stroke-width="1" stroke-opacity="0.2" fill="white" />
<path d="M1269.4577919632306,12 L1269.4577919632306,3000" stroke="white" stroke-width="1" stroke-opacity="0.2" fill="white" />
<path d="M1517.3493503558768,12 L1517.3493503558768,3000" stroke="white" stroke-width="1" stroke-opacity="0.2" fill="white" />
<path d="M1765.2409087485228,12 L1765.2409087485228,3000" stroke="white" stroke-width="1" stroke-opacity="0.2" fill="white" />
<path d="M2013.132467141169,12 L2013.132467141169,3000" stroke="white" stroke-width="1" stroke-opacity="0.2" fill="white" />
<path d="M2261.024025533815,12 L2261.024025533815,3000" stroke="white" stroke-width="1" stroke-opacity="0.2" fill="white" />
<path d="M2508.9155839264613,12 L2508.9155839264613,3000" stroke="white" stroke-width="1" stroke-opacity="0.2" fill="white" />
<path d="M2756.8071423191072,12 L2756.8071423191072,3000" stroke="white" stroke-width="1" stroke-opacity="0.2" fill="white" />
<path d="M44.87752027406907,36 L731.2901747124029,36" stroke="white" stroke-width="12" />
<text x="48.87752027406907" y="40" font-size="10" font-family="Roboto" fill="#111111ff">JOB::job1 - 60.0162s -&gt;  2829.02s</text>
<path d="M44.87752027406907,48 L731.2892454633062,48" stroke="#f4d229" stroke-width="4" stroke-opacity="0.8" stroke-linecap="butt" />
<path d="M44.877984684030224,54 L614.2832425035906,54" stroke="#42f5bc" stroke-width="4" stroke-opacity="0.8" stroke-linecap="butt" />
<text x="156.43708180934476" y="70" font-size="12" font-family="Roboto" fill="#ddddddff">R#1 - 510.05s</text>
<path d="M156.43708180934476,74 L156.43708180934476,386" stroke="white" stroke-width="1" fill="white" />
<path d="M156.43708180934476,78 L229.70770506232265,78" stroke="#38a816" stroke-width="4" stroke-opacity="0.8" stroke-linecap="butt" />
<path d="M156.43754621930594,84 L229.71348593073583,84" stroke="#38a816" stroke-width="4" stroke-opacity="0.8" stroke-linecap="butt" />
<path d="M156.4380106292671,90 L229.70770506232265,90" stroke="#38a816" stroke-width="4" stroke-opacity="0.8" stroke-linecap="butt" />
<path d="M156.43847503922825,96 L229.71348593073583,96" stroke="#38a816" stroke-width="4" stroke-opacity="0.8" stroke-linecap="butt" />
<path d="M156.43893944918943,102 L229.76652208331086,102" stroke="#38a816" stroke-width="4" stroke-opacity="0.8" stroke-linecap="butt" />
<path d="M156.43940385915062,108 L229.76885427142136,108" stroke="#38a816" stroke-width="4" stroke-opacity="0.8" stroke-linecap="butt" />
<path d="M156.43986826911177,114 L229.76652208331086,114" stroke="#38a816" stroke-width="4" stroke-opacity="0.8" stroke-linecap="butt" />
<path d="M156.44033267907292,120 L229.76885427142136,120" stroke="#38a816" stroke-width="4" stroke-opacity="0.8" stroke-linecap="butt" />
<path d="M229.77001571503104,126 L328.4891176792964,126" stroke="#3774c4" stroke-width="4" stroke-opacity="0.8" stroke-linecap="butt" />
<path d="M229.7704801249922,132 L328.49326451444125,132" stroke="#3774c4" stroke-width="4" stroke-opacity="0.8" stroke-linecap="butt" />
<path d="M229.77094453495337,138 L328.493967347652,138" stroke="#3774c4" stroke-width="4" stroke-opacity="0.8" stroke-linecap="butt" />
<path d="M229.77140894491453,144 L328.493967347652,144" stroke="#3774c4" stroke-width="4" stroke-opacity="0.8" stroke-linecap="butt" />
<path d="M328.49512879126166,150 L386.3885971859338,150" stroke="#6d1d8f" stroke-width="4" stroke-opacity="0.8" stroke-linecap="butt" />
<path d="M328.49559320122285,156 L386.3890609920312,156" stroke="#6d1d8f" stroke-width="4" stroke-opacity="0.8" stroke-linecap="butt" />
<path d="M386.39022243564085,162 L386.43434339174473,162" stroke="#ff6038" stroke-width="4" stroke-opacity="0.8" stroke-linecap="round" />
<path d="M386.390686845602,168 L386.43480780170586,168" stroke="#ff6038" stroke-width="4" stroke-opacity="0.8" stroke-linecap="round" />
<path d="M386.39115125556316,174 L386.43527221166704,174" stroke="#ff6038" stroke-width="4" stroke-opacity="0.8" stroke-linecap="round" />
<path d="M386.39161566552434,180 L386.4357366216282,180" stroke="#ff6038" stroke-width="4" stroke-opacity="0.8" stroke-linecap="round" />
<path d="M386.43759472205033,186 L386.5109748246344,186" stroke="#b52a35" stroke-width="4" stroke-opacity="0.8" stroke-linecap="round" />
<path d="M386.43805913201146,192 L386.5114392345955,192" stroke="#b52a35" stroke-width="4" stroke-opacity="0.8" stroke-linecap="round" />
<path d="M386.43689806523787,198 L386.43736251706974,198" stroke="#b52a35" stroke-width="4" stroke-opacity="0.8" stroke-linecap="round" />
<path d="M386.43736247519905,204 L386.43782692703087,204" stroke="#b52a35" stroke-width="4" stroke-opacity="0.8" stroke-linecap="round" />
<text x="416.7236829502911" y="220" font-size="12" font-family="Roboto" fill="#ddddddff">R#2 - 1560.1s</text>
<path d="M416.7236829502911,224 L416.7236829502911,404" stroke="white" stroke-width="1" fill="white" />
<path d="M416.7236829502911,228 L441.80925191983454,228" stroke="#fcba03" stroke-width="4" stroke-opacity="0.8" stroke-linecap="butt" />
<path d="M416.7241473602523,234 L441.84139250355895,234" stroke="#fcba03" stroke-width="4" stroke-opacity="0.8" stroke-linecap="butt" />
<path d="M416.7246117702134,240 L441.8418588395716,240" stroke="#fcba03" stroke-width="4" stroke-opacity="0.8" stroke-linecap="butt" />
<path d="M416.7250761801746,246 L441.8418588395716,246" stroke="#fcba03" stroke-width="4" stroke-opacity="0.8" stroke-linecap="butt" />
<path d="M441.84302028318126,252 L457.5356310565361,252" stroke="#38a816" stroke-width="4" stroke-opacity="0.8" stroke-linecap="butt" />
<path d="M441.84348469314244,258 L457.5362524869093,258" stroke="#38a816" stroke-width="4" stroke-opacity="0.8" stroke-linecap="butt" />
<path d="M441.8439491031036,264 L457.53827814299046,264" stroke="#38a816" stroke-width="4" stroke-opacity="0.8" stroke-linecap="butt" />
<path d="M441.8444135130648,270 L457.5399746601159,270" stroke="#38a816" stroke-width="4" stroke-opacity="0.8" stroke-linecap="butt" />
<path d="M441.84487792302593,276 L457.5673621181182,276" stroke="#38a816" stroke-width="4" stroke-opacity="0.8" stroke-linecap="butt" />
<path d="M441.8453423329871,282 L457.5673621181182,282" stroke="#38a816" stroke-width="4" stroke-opacity="0.8" stroke-linecap="butt" />
<path d="M441.8458067429483,288 L457.5673621181182,288" stroke="#38a816" stroke-width="4" stroke-opacity="0.8" stroke-linecap="butt" />
<path d="M441.8462711529095,294 L457.5673621181182,294" stroke="#38a816" stroke-width="4" stroke-opacity="0.8" stroke-linecap="butt" />
<path d="M457.56852356172783,300 L556.2876255259932,300" stroke="#3774c4" stroke-width="4" stroke-opacity="0.8" stroke-linecap="butt" />
<path d="M457.568987971689,306 L556.2917723611382,306" stroke="#3774c4" stroke-width="4" stroke-opacity="0.8" stroke-linecap="butt" />
<path d="M457.56945238165014,312 L556.292475194349,312" stroke="#3774c4" stroke-width="4" stroke-opacity="0.8" stroke-linecap="butt" />
<path d="M457.5699167916113,318 L556.292475194349,318" stroke="#3774c4" stroke-width="4" stroke-opacity="0.8" stroke-linecap="butt" />
<path d="M556.2936366379586,324 L614.1871050326041,324" stroke="#6d1d8f" stroke-width="4" stroke-opacity="0.8" stroke-linecap="butt" />
<path d="M556.2941010479198,330 L614.1875688387014,330" stroke="#6d1d8f" stroke-width="4" stroke-opacity="0.8" stroke-linecap="butt" />
<path d="M614.1901235959356,336 L614.2054498364539,336" stroke="#ff6038" stroke-width="4" stroke-opacity="0.8" stroke-linecap="round" />
<path d="M614.1905880058968,342 L614.2059142464151,342" stroke="#ff6038" stroke-width="4" stroke-opacity="0.8" stroke-linecap="round" />
<path d="M614.1910524158579,348 L614.2063786563762,348" stroke="#ff6038" stroke-width="4" stroke-opacity="0.8" stroke-linecap="round" />
<path d="M614.1915168258191,354 L614.2068430663373,354" stroke="#ff6038" stroke-width="4" stroke-opacity="0.8" stroke-linecap="round" />
<path d="M614.188730282311,360 L614.1891947341427,360" stroke="#ff6038" stroke-width="4" stroke-opacity="0.8" stroke-linecap="round" />
<path d="M614.189194692272,366 L614.1896591441039,366" stroke="#ff6038" stroke-width="4" stroke-opacity="0.8" stroke-linecap="round" />
<path d="M614.1894269391232,372 L614.189891390955,372" stroke="#ff6038" stroke-width="4" stroke-opacity="0.8" stroke-linecap="round" />
<path d="M614.1898913490844,378 L614.1903558009162,378" stroke="#ff6038" stroke-width="4" stroke-opacity="0.8" stroke-linecap="round" />
<path d="M614.2087011667593,384 L614.2820812693343,384" stroke="#b52a35" stroke-width="4" stroke-opacity="0.8" stroke-linecap="round" />
<path d="M614.2091655767205,390 L614.2825456792955,390" stroke="#b52a35" stroke-width="4" stroke-opacity="0.8" stroke-linecap="round" />
<path d="M614.2080045099469,396 L614.2084689617786,396" stroke="#b52a35" stroke-width="4" stroke-opacity="0.8" stroke-linecap="round" />
<path d="M614.2084689199081,402 L614.2089333717398,402" stroke="#b52a35" stroke-width="4" stroke-opacity="0.8" stroke-linecap="round" />
<path d="M986.8659065760854,420 L2746.8969004129694,420" stroke="white" stroke-width="12" />
<text x="990.8659065760854" y="424" font-size="10" font-family="Roboto" fill="#111111ff">JOB::job2 - 3860.02s -&gt;  10960.0s</text>
<path d="M986.8663709860466,432 L2483.4792721572057,432" stroke="#42f5bc" stroke-width="4" stroke-opacity="0.8" stroke-linecap="butt" />
<path d="M986.8659065760854,438 L2746.8959711638727,438" stroke="#f4d229" stroke-width="4" stroke-opacity="0.8" stroke-linecap="butt" />
<text x="986.8696223163515" y="454" font-size="12" font-family="Roboto" fill="#ddddddff">R#1 - 3860.0s</text>
<path d="M986.8696223163515,458 L986.8696223163515,602" stroke="white" stroke-width="1" fill="white" />
<path d="M986.8696223163515,462 L1941.981748813003,462" stroke="#3774c4" stroke-width="4" stroke-opacity="0.8" stroke-linecap="butt" />
<path d="M986.8700867263127,468 L1942.0270890960314,468" stroke="#3774c4" stroke-width="4" stroke-opacity="0.8" stroke-linecap="butt" />
<path d="M1942.028714949602,474 L2483.228851586658,474" stroke="#6d1d8f" stroke-width="4" stroke-opacity="0.8" stroke-linecap="butt" />
<path d="M1942.028250539641,480 L2483.027420950479,480" stroke="#6d1d8f" stroke-width="4" stroke-opacity="0.8" stroke-linecap="butt" />
<path d="M2483.2307096870804,486 L2483.3184871474673,486" stroke="#b52a35" stroke-width="4" stroke-opacity="0.8" stroke-linecap="round" />
<path d="M2483.230013030268,492 L2483.2304774821,492" stroke="#b52a35" stroke-width="4" stroke-opacity="0.8" stroke-linecap="round" />
<path d="M2483.2311740970417,498 L2483.318951557428,498" stroke="#b52a35" stroke-width="4" stroke-opacity="0.8" stroke-linecap="round" />
<path d="M2483.230477440229,504 L2483.2309418920613,504" stroke="#b52a35" stroke-width="4" stroke-opacity="0.8" stroke-linecap="round" />
<text x="986.8710155462351" y="520" font-size="12" font-family="Roboto" fill="#ddddddff">R#2 - 3860.0s</text>
<path d="M986.8710155462351,524 L986.8710155462351,620" stroke="white" stroke-width="1" fill="white" />
<path d="M986.8710155462351,528 L1942.03430377554,528" stroke="#3774c4" stroke-width="4" stroke-opacity="0.8" stroke-linecap="butt" />
<path d="M986.8705511362739,534 L1942.0328549437013,534" stroke="#3774c4" stroke-width="4" stroke-opacity="0.8" stroke-linecap="butt" />
<path d="M1942.0359296291108,540 L2483.3868496760524,540" stroke="#6d1d8f" stroke-width="4" stroke-opacity="0.8" stroke-linecap="butt" />
<path d="M1942.0354652191495,546 L2483.385496725003,546" stroke="#6d1d8f" stroke-width="4" stroke-opacity="0.8" stroke-linecap="butt" />
<path d="M2483.3884757389765,552 L2483.3889401908086,552" stroke="#b52a35" stroke-width="4" stroke-opacity="0.8" stroke-linecap="round" />
<path d="M2483.3887079858278,558 L2483.4764854462146,558" stroke="#b52a35" stroke-width="4" stroke-opacity="0.8" stroke-linecap="round" />
<path d="M2483.389172395789,564 L2483.476949856176,564" stroke="#b52a35" stroke-width="4" stroke-opacity="0.8" stroke-linecap="round" />
<path d="M2483.388011329015,570 L2483.3884757808473,570" stroke="#b52a35" stroke-width="4" stroke-opacity="0.8" stroke-linecap="round" />
<text x="986.8719443661573" y="586" font-size="12" font-family="Roboto" fill="#ddddddff">R#3 - 3860.0s</text>
<path d="M986.8719443661573,590 L986.8719443661573,638" stroke="white" stroke-width="1" fill="white" />
<path d="M986.8719443661573,594 L1942.0347107354703,594" stroke="#3774c4" stroke-width="4" stroke-opacity="0.8" stroke-linecap="butt" />
<path d="M986.8714799561961,600 L1942.0347107354703,600" stroke="#3774c4" stroke-width="4" stroke-opacity="0.8" stroke-linecap="butt" />
<path d="M1942.0363940390719,606 L2483.3868496760524,606" stroke="#6d1d8f" stroke-width="4" stroke-opacity="0.8" stroke-linecap="butt" />
<path d="M1942.036858449033,612 L2483.3868496760524,612" stroke="#6d1d8f" stroke-width="4" stroke-opacity="0.8" stroke-linecap="butt" />
<path d="M2483.3901012157116,618 L2483.3905656675433,618" stroke="#b52a35" stroke-width="4" stroke-opacity="0.8" stroke-linecap="round" />
<path d="M2483.390797872524,624 L2483.4785753329106,624" stroke="#b52a35" stroke-width="4" stroke-opacity="0.8" stroke-linecap="round" />
<path d="M2483.390333462563,630 L2483.4781109229493,630" stroke="#b52a35" stroke-width="4" stroke-opacity="0.8" stroke-linecap="round" />
<path d="M2483.3896368057503,636 L2483.390101257582,636" stroke="#b52a35" stroke-width="4" stroke-opacity="0.8" stroke-linecap="round" />
<path d="M986.8666036097338,654 L2970.0,654" stroke="white" stroke-width="12" />
<text x="990.8666036097338" y="658" font-size="10" font-family="Roboto" fill="#111111ff">JOB::job3 - 3860.02s -&gt;  11860.0s</text>
<path d="M986.867068019695,666 L2492.998980958162,666" stroke="#42f5bc" stroke-width="4" stroke-opacity="0.8" stroke-linecap="butt" />
<path d="M986.8666036097338,672 L2969.999070750903,672" stroke="#f4d229" stroke-width="4" stroke-opacity="0.8" stroke-linecap="butt" />
<text x="996.8054886626388" y="688" font-size="12" font-family="Roboto" fill="#ddddddff">R#1 - 3900.1s</text>
<path d="M996.8054886626388,692 L996.8054886626388,1268" stroke="white" stroke-width="1" fill="white" />
<path d="M996.8054886626388,696 L1947.7262263383886,696" stroke="#fcba03" stroke-width="4" stroke-opacity="0.8" stroke-linecap="butt" />
<path d="M996.8068818925224,702 L1947.7287351789532,702" stroke="#fcba03" stroke-width="4" stroke-opacity="0.8" stroke-linecap="butt" />
<path d="M996.8059530726,708 L1947.7284842398976,708" stroke="#fcba03" stroke-width="4" stroke-opacity="0.8" stroke-linecap="butt" />
<path d="M996.8064174825612,714 L1947.7284842398976,714" stroke="#fcba03" stroke-width="4" stroke-opacity="0.8" stroke-linecap="butt" />
<path d="M1947.7298966225628,720 L2485.727237126374,720" stroke="#38a816" stroke-width="4" stroke-opacity="0.8" stroke-linecap="butt" />
<path d="M1947.7303610325241,726 L2485.754382748447,726" stroke="#38a816" stroke-width="4" stroke-opacity="0.8" stroke-linecap="butt" />
<path d="M1947.7308254424852,732 L2485.754382748447,732" stroke="#38a816" stroke-width="4" stroke-opacity="0.8" stroke-linecap="butt" />
<path d="M1947.7312898524465,738 L2485.754382748447,738" stroke="#38a816" stroke-width="4" stroke-opacity="0.8" stroke-linecap="butt" />
<path d="M2485.756937505682,744 L2485.769012729928,744" stroke="#ff6038" stroke-width="4" stroke-opacity="0.8" stroke-linecap="round" />
<path d="M2485.757401915643,750 L2485.769477139889,750" stroke="#ff6038" stroke-width="4" stroke-opacity="0.8" stroke-linecap="round" />
<path d="M2485.7578663256045,756 L2485.7699415498505,756" stroke="#ff6038" stroke-width="4" stroke-opacity="0.8" stroke-linecap="round" />
<path d="M2485.7583307355653,762 L2485.770405959812,762" stroke="#ff6038" stroke-width="4" stroke-opacity="0.8" stroke-linecap="round" />
<path d="M2485.7555441920567,768 L2485.756008643889,768" stroke="#ff6038" stroke-width="4" stroke-opacity="0.8" stroke-linecap="round" />
<path d="M2485.756008602018,774 L2485.75647305385,774" stroke="#ff6038" stroke-width="4" stroke-opacity="0.8" stroke-linecap="round" />
<path d="M2485.7562408488693,780 L2485.7567053007015,780" stroke="#ff6038" stroke-width="4" stroke-opacity="0.8" stroke-linecap="round" />
<path d="M2485.7567052588306,786 L2485.7571697106623,786" stroke="#ff6038" stroke-width="4" stroke-opacity="0.8" stroke-linecap="round" />
<text x="1016.6372781627183" y="802" font-size="12" font-family="Roboto" fill="#ddddddff">R#2 - 3980.1s</text>
<path d="M1016.6372781627183,806 L1016.6372781627183,1286" stroke="white" stroke-width="1" fill="white" />
<path d="M1016.6372781627183,810 L1955.8673036430469,810" stroke="#fcba03" stroke-width="4" stroke-opacity="0.8" stroke-linecap="butt" />
<path d="M1016.6377425726795,816 L1955.8688765470374,816" stroke="#fcba03" stroke-width="4" stroke-opacity="0.8" stroke-linecap="butt" />
<path d="M1016.6382069826407,822 L1955.8688765470374,822" stroke="#fcba03" stroke-width="4" stroke-opacity="0.8" stroke-linecap="butt" />
<path d="M1016.6386713926019,828 L1955.8688765470374,828" stroke="#fcba03" stroke-width="4" stroke-opacity="0.8" stroke-linecap="butt" />
<path d="M1955.870502400608,834 L2489.1659797555008,834" stroke="#38a816" stroke-width="4" stroke-opacity="0.8" stroke-linecap="butt" />
<path d="M1955.870037990647,840 L2489.1408597585346,840" stroke="#38a816" stroke-width="4" stroke-opacity="0.8" stroke-linecap="butt" />
<path d="M1955.8714312205304,846 L2489.1659797555008,846" stroke="#38a816" stroke-width="4" stroke-opacity="0.8" stroke-linecap="butt" />
<path d="M1955.8709668105694,852 L2489.1659797555008,852" stroke="#38a816" stroke-width="4" stroke-opacity="0.8" stroke-linecap="butt" />
<path d="M2489.167605609072,858 L2489.168070060904,858" stroke="#ff6038" stroke-width="4" stroke-opacity="0.8" stroke-linecap="round" />
<path d="M2489.168998922697,864 L2489.181074146943,864" stroke="#ff6038" stroke-width="4" stroke-opacity="0.8" stroke-linecap="round" />
<path d="M2489.1683022658844,870 L2489.1687667177166,870" stroke="#ff6038" stroke-width="4" stroke-opacity="0.8" stroke-linecap="round" />
<path d="M2489.1699277426196,876 L2489.1820029668656,876" stroke="#ff6038" stroke-width="4" stroke-opacity="0.8" stroke-linecap="round" />
<path d="M2489.1694633326583,882 L2489.1815385569043,882" stroke="#ff6038" stroke-width="4" stroke-opacity="0.8" stroke-linecap="round" />
<path d="M2489.167141199111,888 L2489.1676056509427,888" stroke="#ff6038" stroke-width="4" stroke-opacity="0.8" stroke-linecap="round" />
<path d="M2489.167837855923,894 L2489.1683023077553,894" stroke="#ff6038" stroke-width="4" stroke-opacity="0.8" stroke-linecap="round" />
<path d="M2489.1685345127357,900 L2489.180609736982,900" stroke="#ff6038" stroke-width="4" stroke-opacity="0.8" stroke-linecap="round" />
<text x="1046.3847299985036" y="916" font-size="12" font-family="Roboto" fill="#ddddddff">R#3 - 4100.1s</text>
<path d="M1046.3847299985036,920 L1046.3847299985036,1304" stroke="white" stroke-width="1" fill="white" />
<path d="M1046.3847299985036,924 L1963.9261311211021,924" stroke="#fcba03" stroke-width="4" stroke-opacity="0.8" stroke-linecap="butt" />
<path d="M1046.385194408465,930 L1963.9271445318864,930" stroke="#fcba03" stroke-width="4" stroke-opacity="0.8" stroke-linecap="butt" />
<path d="M1046.385658818426,936 L1963.9271445318864,936" stroke="#fcba03" stroke-width="4" stroke-opacity="0.8" stroke-linecap="butt" />
<path d="M1046.386123228387,942 L1963.9271445318864,942" stroke="#fcba03" stroke-width="4" stroke-opacity="0.8" stroke-linecap="butt" />
<path d="M1963.9296992053794,948 L2491.4186415784434,948" stroke="#38a816" stroke-width="4" stroke-opacity="0.8" stroke-linecap="butt" />
<path d="M1963.929234795418,954 L2491.4186415784434,954" stroke="#38a816" stroke-width="4" stroke-opacity="0.8" stroke-linecap="butt" />
<path d="M1963.928770385457,960 L2491.4186415784434,960" stroke="#38a816" stroke-width="4" stroke-opacity="0.8" stroke-linecap="butt" />
<path d="M1963.928305975496,966 L2491.393604190124,966" stroke="#38a816" stroke-width="4" stroke-opacity="0.8" stroke-linecap="butt" />
<path d="M2491.4202674320145,972 L2491.4207318838467,972" stroke="#ff6038" stroke-width="4" stroke-opacity="0.8" stroke-linecap="round" />
<path d="M2491.422589565562,978 L2491.4346647898083,978" stroke="#ff6038" stroke-width="4" stroke-opacity="0.8" stroke-linecap="round" />
<path d="M2491.422125155601,984 L2491.434200379847,984" stroke="#ff6038" stroke-width="4" stroke-opacity="0.8" stroke-linecap="round" />
<path d="M2491.420964088827,990 L2491.421428540659,990" stroke="#ff6038" stroke-width="4" stroke-opacity="0.8" stroke-linecap="round" />
<path d="M2491.419803022053,996 L2491.4202674738854,996" stroke="#ff6038" stroke-width="4" stroke-opacity="0.8" stroke-linecap="round" />
<path d="M2491.420499678866,1002 L2491.420964130698,1002" stroke="#ff6038" stroke-width="4" stroke-opacity="0.8" stroke-linecap="round" />
<path d="M2491.4216607456397,1008 L2491.4337359698857,1008" stroke="#ff6038" stroke-width="4" stroke-opacity="0.8" stroke-linecap="round" />
<path d="M2491.4211963356784,1014 L2491.4332715599244,1014" stroke="#ff6038" stroke-width="4" stroke-opacity="0.8" stroke-linecap="round" />
<text x="1086.048308579956" y="1030" font-size="12" font-family="Roboto" fill="#ddddddff">R#4 - 4260.1s</text>
<path d="M1086.048308579956,1034 L1086.048308579956,1322" stroke="white" stroke-width="1" fill="white" />
<path d="M1086.048308579956,1038 L1970.451716314349,1038" stroke="#fcba03" stroke-width="4" stroke-opacity="0.8" stroke-linecap="butt" />
<path d="M1086.0478441699947,1044 L1970.4511223926886,1044" stroke="#fcba03" stroke-width="4" stroke-opacity="0.8" stroke-linecap="butt" />
<path d="M1086.048772989917,1050 L1970.451716314349,1050" stroke="#fcba03" stroke-width="4" stroke-opacity="0.8" stroke-linecap="butt" />
<path d="M1086.0492373998784,1056 L1970.451716314349,1056" stroke="#fcba03" stroke-width="4" stroke-opacity="0.8" stroke-linecap="butt" />
<path d="M1970.454270987842,1062 L2492.551156837878,1062" stroke="#38a816" stroke-width="4" stroke-opacity="0.8" stroke-linecap="butt" />
<path d="M1970.4538065778809,1068 L2492.551156837878,1068" stroke="#38a816" stroke-width="4" stroke-opacity="0.8" stroke-linecap="butt" />
<path d="M1970.4533421679198,1074 L2492.5508914892325,1074" stroke="#38a816" stroke-width="4" stroke-opacity="0.8" stroke-linecap="butt" />
<path d="M1970.4528777579585,1080 L2492.5508914892325,1080" stroke="#38a816" stroke-width="4" stroke-opacity="0.8" stroke-linecap="butt" />
<path d="M2492.553711595113,1086 L2492.5657868193593,1086" stroke="#ff6038" stroke-width="4" stroke-opacity="0.8" stroke-linecap="round" />
<path d="M2492.552782691449,1092 L2492.553247143281,1092" stroke="#ff6038" stroke-width="4" stroke-opacity="0.8" stroke-linecap="round" />
<path d="M2492.5551048249968,1098 L2492.567180049243,1098" stroke="#ff6038" stroke-width="4" stroke-opacity="0.8" stroke-linecap="round" />
<path d="M2492.5546404150355,1104 L2492.5667156392815,1104" stroke="#ff6038" stroke-width="4" stroke-opacity="0.8" stroke-linecap="round" />
<path d="M2492.5534793482616,1110 L2492.5539438000937,1110" stroke="#ff6038" stroke-width="4" stroke-opacity="0.8" stroke-linecap="round" />
<path d="M2492.552318281488,1116 L2492.55278273332,1116" stroke="#ff6038" stroke-width="4" stroke-opacity="0.8" stroke-linecap="round" />
<path d="M2492.5530149383007,1122 L2492.5534793901325,1122" stroke="#ff6038" stroke-width="4" stroke-opacity="0.8" stroke-linecap="round" />
<path d="M2492.554176005074,1128 L2492.56625122932,1128" stroke="#ff6038" stroke-width="4" stroke-opacity="0.8" stroke-linecap="round" />
<text x="1135.6275494971142" y="1144" font-size="12" font-family="Roboto" fill="#ddddddff">R#5 - 4460.1s</text>
<path d="M1135.6275494971142,1148 L1135.6275494971142,1340" stroke="white" stroke-width="1" fill="white" />
<path d="M1135.6275494971142,1152 L1974.6252384414306,1152" stroke="#fcba03" stroke-width="4" stroke-opacity="0.8" stroke-linecap="butt" />
<path d="M1135.6280139070752,1158 L1974.6252384414306,1158" stroke="#fcba03" stroke-width="4" stroke-opacity="0.8" stroke-linecap="butt" />
<path d="M1135.6266206771918,1164 L1974.6249516873236,1164" stroke="#fcba03" stroke-width="4" stroke-opacity="0.8" stroke-linecap="butt" />
<path d="M1135.627085087153,1170 L1974.6252384414306,1170" stroke="#fcba03" stroke-width="4" stroke-opacity="0.8" stroke-linecap="butt" />
<path d="M1974.6277931149236,1176 L2492.9337384185446,1176" stroke="#38a816" stroke-width="4" stroke-opacity="0.8" stroke-linecap="butt" />
<path d="M1974.6273287049623,1182 L2492.9337384185446,1182" stroke="#38a816" stroke-width="4" stroke-opacity="0.8" stroke-linecap="butt" />
<path d="M1974.6268642950013,1188 L2492.9337384185446,1188" stroke="#38a816" stroke-width="4" stroke-opacity="0.8" stroke-linecap="butt" />
<path d="M1974.6263998850402,1194 L2492.9337384185446,1194" stroke="#38a816" stroke-width="4" stroke-opacity="0.8" stroke-linecap="butt" />
<path d="M2492.937686405663,1200 L2492.949761925205,1200" stroke="#ff6038" stroke-width="4" stroke-opacity="0.8" stroke-linecap="round" />
<path d="M2492.9353642721157,1206 L2492.935828723948,1206" stroke="#ff6038" stroke-width="4" stroke-opacity="0.8" stroke-linecap="round" />
<path d="M2492.937221995702,1212 L2492.9492974337063,1212" stroke="#ff6038" stroke-width="4" stroke-opacity="0.8" stroke-linecap="round" />
<path d="M2492.9360609289283,1218 L2492.9365253807605,1218" stroke="#ff6038" stroke-width="4" stroke-opacity="0.8" stroke-linecap="round" />
<path d="M2492.9348998621545,1224 L2492.9353643139866,1224" stroke="#ff6038" stroke-width="4" stroke-opacity="0.8" stroke-linecap="round" />
<path d="M2492.935596518967,1230 L2492.936060970799,1230" stroke="#ff6038" stroke-width="4" stroke-opacity="0.8" stroke-linecap="round" />
<path d="M2492.936757585741,1236 L2492.9488331052826,1236" stroke="#ff6038" stroke-width="4" stroke-opacity="0.8" stroke-linecap="round" />
<path d="M2492.9362931757796,1242 L2492.948368776859,1242" stroke="#ff6038" stroke-width="4" stroke-opacity="0.8" stroke-linecap="round" />
<text x="1195.1210595200946" y="1258" font-size="12" font-family="Roboto" fill="#ddddddff">R#6 - 4700.1s</text>
<path d="M1195.1210595200946,1262 L1195.1210595200946,1358" stroke="white" stroke-width="1" fill="white" />
<path d="M1195.1210595200946,1266 L1976.2093988412125,1266" stroke="#fcba03" stroke-width="4" stroke-opacity="0.8" stroke-linecap="butt" />
<path d="M1195.121988340017,1272 L1976.2093988412125,1272" stroke="#fcba03" stroke-width="4" stroke-opacity="0.8" stroke-linecap="butt" />
<path d="M1195.1224527499783,1278 L1976.2093988412125,1278" stroke="#fcba03" stroke-width="4" stroke-opacity="0.8" stroke-linecap="butt" />
<path d="M1195.121523930056,1284 L1976.2093988412125,1284" stroke="#fcba03" stroke-width="4" stroke-opacity="0.8" stroke-linecap="butt" />
<path d="M1976.2119535147056,1290 L2492.9822609225016,1290" stroke="#38a816" stroke-width="4" stroke-opacity="0.8" stroke-linecap="butt" />
<path d="M1976.2114891047443,1296 L2492.9822609225016,1296" stroke="#38a816" stroke-width="4" stroke-opacity="0.8" stroke-linecap="butt" />
<path d="M1976.2110246947832,1302 L2492.9822609225016,1302" stroke="#38a816" stroke-width="4" stroke-opacity="0.8" stroke-linecap="butt" />
<path d="M1976.210560284822,1308 L2492.9822609225016,1308" stroke="#38a816" stroke-width="4" stroke-opacity="0.8" stroke-linecap="butt" />
<path d="M2492.9862089096205,1314 L2492.9982841338665,1314" stroke="#ff6038" stroke-width="4" stroke-opacity="0.8" stroke-linecap="round" />
<path d="M2492.983886776073,1320 L2492.984351227905,1320" stroke="#ff6038" stroke-width="4" stroke-opacity="0.8" stroke-linecap="round" />
<path d="M2492.985744499659,1326 L2492.997819723905,1326" stroke="#ff6038" stroke-width="4" stroke-opacity="0.8" stroke-linecap="round" />
<path d="M2492.9845834328853,1332 L2492.9850478847175,1332" stroke="#ff6038" stroke-width="4" stroke-opacity="0.8" stroke-linecap="round" />
<path d="M2492.983422366112,1338 L2492.9838868179436,1338" stroke="#ff6038" stroke-width="4" stroke-opacity="0.8" stroke-linecap="round" />
<path d="M2492.9841190229245,1344 L2492.984583474756,1344" stroke="#ff6038" stroke-width="4" stroke-opacity="0.8" stroke-linecap="round" />
<path d="M2492.985280089698,1350 L2492.9973553139444,1350" stroke="#ff6038" stroke-width="4" stroke-opacity="0.8" stroke-linecap="round" />
<path d="M2492.984815679737,1356 L2492.996890903983,1356" stroke="#ff6038" stroke-width="4" stroke-opacity="0.8" stroke-linecap="round" />
</svg>