<?xml version="1.0" encoding="UTF-8"?>
<svg xmlns="http://www.w3.org/2000/svg" xmlns:xlink="http://www.w3.org/1999/xlink"
     width="3000" height="1764" viewBox="0 0 3000 1764">
<defs>
</defs>
<rect x="0" y="0" width="3060" height="1764" fill="#444444ff" />
<path d="M30.0,12 L30.0,3000" stroke="white" stroke-width="1" stroke-opacity="0.2" fill="white" />
<path d="M277.8915583926461,12 L277.8915583926461,3000" stroke="white" stroke-width="1" stroke-opacity="0.2" fill="white" />
<path d="M525.7831167852922,12 L525.7831167852922,3000" stroke="white" stroke-width="1" stroke-opacity="0.2" fill="white" />
<path d="M773.6746751779384,12 L773.6746751779384,3000" stroke="white" stroke-width="1" stroke-opacity="0.2" fill="white" />
<path d="M1021.5662335705845,12 L1021.5662335705845,3000" stroke="white" stroke-width="1" stroke-opacity="0.2" fill="white" />
<path d="M1269.4577919632306,12 L1269.4577919632306,3000" stroke="white" stroke-width="1" stroke-opacity="0.2" fill="white" />
<path d="M1517.3493503558768,12 L1517.3493503558768,3000" stroke="white" stroke-width="1" stroke-opacity="0.2" fill="white" />
<path d="M1765.2409087485228,12 L1765.2409087485228,3000" stroke="white" stroke-width="1" stroke-opacity="0.2" fill="white" />
<path d="M2013.132467141169,12 L2013.132467141169,3000" stroke="white" stroke-width="1" stroke-opacity="0.2" fill="white" />
<path d="M2261.024025533815,12 L2261.024025533815,3000" stroke="white" stroke-width="1" stroke-opacity="0.2" fill="white" />
<path d="M2508.9155839264613,12 L2508.9155839264613,3000" stroke="white" stroke-width="1" stroke-opacity="0.2" fill="white" />
<path d="M2756.8071423191072,12 L2756.8071423191072,3000" stroke="white" stroke-width="1" stroke-opacity="0.2" fill="white" />
<path d="M44.87752027406907,36 L731.2901747124029,36" stroke="white" stroke-width="12" />
<text x="48.87752027406907" y="40" font-size="10" font-family="Roboto" fill="#111111ff">JOB::job1 - 60.0162s -&gt;  2829.02s</text>
<path d="M44.87752027406907,48 L731.2892454633062,48" stroke="#f4d229" stroke-width="4" stroke-opacity="0.8" stroke-linecap="butt" />
<path d="M44.877984684030224,54 L614.5017908871777,54" stroke="#42f5bc" stroke-width="4" stroke-opacity="0.8" stroke-linecap="butt" />
<text x="156.43708180934476" y="70" font-size="12" font-family="Roboto" fill="#ddddddff">R#1 - 510.05s</text>
<path d="M156.43708180934476,74 L156.43708180934476,458" stroke="white" stroke-width="1" fill="white" />
<path d="M156.43708180934476,78 L229.70770506232265,78" stroke="#38a816" stroke-width="4" stroke-opacity="0.8" stroke-linecap="butt" />
<path d="M156.43754621930594,84 L229.71348593073583,84" stroke="#38a816" stroke-width="4" stroke-opacity="0.8" stroke-linecap="butt" />
<path d="M156.4380106292671,90 L229.70770506232265,90" stroke="#38a816" stroke-width="4" stroke-opacity="0.8" stroke-linecap="butt" />
<path d="M156.43847503922825,96 L229.71348593073583,96" stroke="#38a816" stroke-width="4" stroke-opacity="0.8" stroke-linecap="butt" />
<path d="M156.43893944918943,102 L229.76652208331086,102" stroke="#38a816" stroke-width="4" stroke-opacity="0.8" stroke-linecap="butt" />
<path d="M156.43940385915062,108 L229.76885427142136,108" stroke="#38a816" stroke-width="4" stroke-opacity="0.8" stroke-linecap="butt" />
<path d="M156.43986826911177,114 L229.76652208331086,114" stroke="#38a816" stroke-width="4" stroke-opacity="0.8" stroke-linecap="butt" />
<path d="M156.44033267907292,120 L229.76885427142136,120" stroke="#38a816" stroke-width="4" stroke-opacity="0.8" stroke-linecap="butt" />
<path d="M229.77001571503104,126 L288.7421331733401,126" stroke="#3774c4" stroke-width="4" stroke-opacity="0.8" stroke-linecap="butt" />
<path d="M229.7704801249922,132 L288.86033061744155,132" stroke="#3774c4" stroke-width="4" stroke-opacity="0.8" stroke-linecap="butt" />
<path d="M229.77094453495337,138 L288.8870505710741,138" stroke="#3774c4" stroke-width="4" stroke-opacity="0.8" stroke-linecap="butt" />
<path d="M229.77140894491453,144 L288.8940107505716,144" stroke="#3774c4" stroke-width="4" stroke-opacity="0.8" stroke-linecap="butt" />
<path d="M229.7718733548757,150 L288.89525953668215,150" stroke="#3774c4" stroke-width="4" stroke-opacity="0.8" stroke-linecap="butt" />
<path d="M229.77233776483686,156 L288.8963109210649,156" stroke="#3774c4" stroke-width="4" stroke-opacity="0.8" stroke-linecap="butt" />
<path d="M229.77280217479804,162 L288.8972422312047,162" stroke="#3774c4" stroke-width="4" stroke-opacity="0.8" stroke-linecap="butt" />
<path d="M229.7732665847592,168 L288.8970100262241,168" stroke="#3774c4" stroke-width="4" stroke-opacity="0.8" stroke-linecap="butt" />
<path d="M229.77373099472038,174 L288.8970100262241,174" stroke="#3774c4" stroke-width="4" stroke-opacity="0.8" stroke-linecap="butt" />
<path d="M229.77419540468154,180 L288.8970100262241,180" stroke="#3774c4" stroke-width="4" stroke-opacity="0.8" stroke-linecap="butt" />
<path d="M229.77465981464272,186 L288.8970100262241,186" stroke="#3774c4" stroke-width="4" stroke-opacity="0.8" stroke-linecap="butt" />
<path d="M229.77512422460387,192 L288.8970100262241,192" stroke="#3774c4" stroke-width="4" stroke-opacity="0.8" stroke-linecap="butt" />
<path d="M288.89817146983376,198 L324.22500568371026,198" stroke="#6d1d8f" stroke-width="4" stroke-opacity="0.8" stroke-linecap="butt" />
<path d="M288.89863587979494,204 L324.22547030131875,204" stroke="#6d1d8f" stroke-width="4" stroke-opacity="0.8" stroke-linecap="butt" />
<path d="M324.2266317449284,210 L324.2707527010323,210" stroke="#ff6038" stroke-width="4" stroke-opacity="0.8" stroke-linecap="round" />
<path d="M324.2270961548896,216 L324.2712171109934,216" stroke="#ff6038" stroke-width="4" stroke-opacity="0.8" stroke-linecap="round" />
<path d="M324.2275605648507,222 L324.2716815209546,222" stroke="#ff6038" stroke-width="4" stroke-opacity="0.8" stroke-linecap="round" />
<path d="M324.2280249748119,228 L324.27214593091577,228" stroke="#ff6038" stroke-width="4" stroke-opacity="0.8" stroke-linecap="round" />
<path d="M324.2740040313379,234 L324.3209115728208,234" stroke="#b52a35" stroke-width="4" stroke-opacity="0.8" stroke-linecap="round" />
<path d="M324.274468441299,240 L324.32137598278194,240" stroke="#b52a35" stroke-width="4" stroke-opacity="0.8" stroke-linecap="round" />
<path d="M324.2733073745254,246 L324.2737718263573,246" stroke="#b52a35" stroke-width="4" stroke-opacity="0.8" stroke-linecap="round" />
<path d="M324.2737717844866,252 L324.2742362363185,252" stroke="#b52a35" stroke-width="4" stroke-opacity="0.8" stroke-linecap="round" />
<text x="416.7236829502911" y="268" font-size="12" font-family="Roboto" fill="#ddddddff">R#2 - 1560.1s</text>
<path d="M416.7236829502911,272 L416.7236829502911,476" stroke="white" stroke-width="1" fill="white" />
<path d="M416.7236829502911,276 L441.80925191983454,276" stroke="#fcba03" stroke-width="4" stroke-opacity="0.8" stroke-linecap="butt" />
<path d="M416.7241473602523,282 L441.84139250355895,282" stroke="#fcba03" stroke-width="4" stroke-opacity="0.8" stroke-linecap="butt" />
<path d="M416.7246117702134,288 L441.8418588395716,288" stroke="#fcba03" stroke-width="4" stroke-opacity="0.8" stroke-linecap="butt" />
<path d="M416.7250761801746,294 L441.8418588395716,294" stroke="#fcba03" stroke-width="4" stroke-opacity="0.8" stroke-linecap="butt" />
<path d="M441.84302028318126,300 L457.5356310565361,300" stroke="#38a816" stroke-width="4" stroke-opacity="0.8" stroke-linecap="butt" />
<path d="M441.84348469314244,306 L457.5362524869093,306" stroke="#38a816" stroke-width="4" stroke-opacity="0.8" stroke-linecap="butt" />
<path d="M441.8439491031036,312 L457.53827814299046,312" stroke="#38a816" stroke-width="4" stroke-opacity="0.8" stroke-linecap="butt" />
<path d="M441.8444135130648,318 L457.5399746601159,318" stroke="#38a816" stroke-width="4" stroke-opacity="0.8" stroke-linecap="butt" />
<path d="M441.84487792302593,324 L457.5673621181182,324" stroke="#38a816" stroke-width="4" stroke-opacity="0.8" stroke-linecap="butt" />
<path d="M441.8453423329871,330 L457.5673621181182,330" stroke="#38a816" stroke-width="4" stroke-opacity="0.8" stroke-linecap="butt" />
<path d="M441.8458067429483,336 L457.5673621181182,336" stroke="#38a816" stroke-width="4" stroke-opacity="0.8" stroke-linecap="butt" />
<path d="M441.8462711529095,342 L457.5673621181182,342" stroke="#38a816" stroke-width="4" stroke-opacity="0.8" stroke-linecap="butt" />
<path d="M457.56852356172783,348 L614.1541813253499,348" stroke="#3774c4" stroke-width="4" stroke-opacity="0.8" stroke-linecap="butt" />
<path d="M457.568987971689,354 L614.346530969595,354" stroke="#3774c4" stroke-width="4" stroke-opacity="0.8" stroke-linecap="butt" />
<path d="M457.56945238165014,360 L614.3716795224447,360" stroke="#3774c4" stroke-width="4" stroke-opacity="0.8" stroke-linecap="butt" />
<path d="M457.5699167916113,366 L614.3753193407223,366" stroke="#3774c4" stroke-width="4" stroke-opacity="0.8" stroke-linecap="butt" />
<path d="M457.5703812015725,372 L614.3786085127261,372" stroke="#3774c4" stroke-width="4" stroke-opacity="0.8" stroke-linecap="butt" />
<path d="M457.5708456115337,378 L614.3798497902538,378" stroke="#3774c4" stroke-width="4" stroke-opacity="0.8" stroke-linecap="butt" />
<path d="M457.5713100214948,384 L614.3810182011464,384" stroke="#3774c4" stroke-width="4" stroke-opacity="0.8" stroke-linecap="butt" />
<path d="M457.571774431456,390 L614.380089381224,390" stroke="#3774c4" stroke-width="4" stroke-opacity="0.8" stroke-linecap="butt" />
<path d="M457.5722388414172,396 L614.3803413389383,396" stroke="#3774c4" stroke-width="4" stroke-opacity="0.8" stroke-linecap="butt" />
<path d="M457.57270325137836,402 L614.3803413389383,402" stroke="#3774c4" stroke-width="4" stroke-opacity="0.8" stroke-linecap="butt" />
<path d="M457.5731676613395,408 L614.3808057488994,408" stroke="#3774c4" stroke-width="4" stroke-opacity="0.8" stroke-linecap="butt" />
<path d="M457.57363207130066,414 L614.3808057488994,414" stroke="#3774c4" stroke-width="4" stroke-opacity="0.8" stroke-linecap="butt" />
<path d="M614.3833605061336,420 L614.3986867466518,420" stroke="#ff6038" stroke-width="4" stroke-opacity="0.8" stroke-linecap="round" />
<path d="M614.3838249160948,426 L614.399151156613,426" stroke="#ff6038" stroke-width="4" stroke-opacity="0.8" stroke-linecap="round" />
<path d="M614.3842893260559,432 L614.3996155665742,432" stroke="#ff6038" stroke-width="4" stroke-opacity="0.8" stroke-linecap="round" />
<path d="M614.384753736017,438 L614.4000799765354,438" stroke="#ff6038" stroke-width="4" stroke-opacity="0.8" stroke-linecap="round" />
<path d="M614.3819671925089,444 L614.3824316443407,444" stroke="#ff6038" stroke-width="4" stroke-opacity="0.8" stroke-linecap="round" />
<path d="M614.3824316024701,450 L614.3828960543018,450" stroke="#ff6038" stroke-width="4" stroke-opacity="0.8" stroke-linecap="round" />
<path d="M614.3826638493213,456 L614.383128301153,456" stroke="#ff6038" stroke-width="4" stroke-opacity="0.8" stroke-linecap="round" />
<path d="M614.3831282592824,462 L614.3835927111141,462" stroke="#ff6038" stroke-width="4" stroke-opacity="0.8" stroke-linecap="round" />
<path d="M614.4012414201449,468 L614.5006296529215,468" stroke="#b52a35" stroke-width="4" stroke-opacity="0.8" stroke-linecap="round" />
<path d="M614.401705830106,474 L614.5010940628827,474" stroke="#b52a35" stroke-width="4" stroke-opacity="0.8" stroke-linecap="round" />
<path d="M986.8659065760854,492 L2746.8969004129694,492" stroke="white" stroke-width="12" />
<text x="990.8659065760854" y="496" font-size="10" font-family="Roboto" fill="#111111ff">JOB::job2 - 3860.02s -&gt;  10960.0s</text>
<path d="M986.8663709860466,504 L2483.3089404936522,504" stroke="#42f5bc" stroke-width="4" stroke-opacity="0.8" stroke-linecap="butt" />
<path d="M986.8659065760854,510 L2746.8959711638727,510" stroke="#f4d229" stroke-width="4" stroke-opacity="0.8" stroke-linecap="butt" />
<text x="986.8696223163515" y="526" font-size="12" font-family="Roboto" fill="#ddddddff">R#1 - 3860.0s</text>
<path d="M986.8696223163515,530 L986.8696223163515,710" stroke="white" stroke-width="1" fill="white" />
<path d="M986.8696223163515,534 L1941.5627621620188,534" stroke="#3774c4" stroke-width="4" stroke-opacity="0.8" stroke-linecap="butt" />
<path d="M986.8700867263127,540 L1941.883233361937,540" stroke="#3774c4" stroke-width="4" stroke-opacity="0.8" stroke-linecap="butt" />
<path d="M986.8705511362739,546 L1941.9282741999186,546" stroke="#3774c4" stroke-width="4" stroke-opacity="0.8" stroke-linecap="butt" />
<path d="M986.8710155462351,552 L1941.9423004811329,552" stroke="#3774c4" stroke-width="4" stroke-opacity="0.8" stroke-linecap="butt" />
<path d="M1941.9439263347035,558 L2482.979676381619,558" stroke="#6d1d8f" stroke-width="4" stroke-opacity="0.8" stroke-linecap="butt" />
<path d="M1941.9434619247425,564 L2482.7788584024856,564" stroke="#6d1d8f" stroke-width="4" stroke-opacity="0.8" stroke-linecap="butt" />
<path d="M2482.98130223519,570 L2482.981766687022,570" stroke="#b52a35" stroke-width="4" stroke-opacity="0.8" stroke-linecap="round" />
<path d="M2482.980837825229,576 L2482.981302277061,576" stroke="#b52a35" stroke-width="4" stroke-opacity="0.8" stroke-linecap="round" />
<path d="M2482.9819988920026,582 L2483.0697763523895,582" stroke="#b52a35" stroke-width="4" stroke-opacity="0.8" stroke-linecap="round" />
<path d="M2482.9815344820418,588 L2483.069311942428,588" stroke="#b52a35" stroke-width="4" stroke-opacity="0.8" stroke-linecap="round" />
<text x="986.8728731860797" y="604" font-size="12" font-family="Roboto" fill="#ddddddff">R#2 - 3860.0s</text>
<path d="M986.8728731860797,608 L986.8728731860797,728" stroke="white" stroke-width="1" fill="white" />
<path d="M986.8728731860797,612 L1941.9530711449238,612" stroke="#3774c4" stroke-width="4" stroke-opacity="0.8" stroke-linecap="butt" />
<path d="M986.8724087761185,618 L1941.952278668674,618" stroke="#3774c4" stroke-width="4" stroke-opacity="0.8" stroke-linecap="butt" />
<path d="M986.8719443661573,624 L1941.9508378508174,624" stroke="#3774c4" stroke-width="4" stroke-opacity="0.8" stroke-linecap="butt" />
<path d="M986.8714799561961,630 L1941.9480663288027,630" stroke="#3774c4" stroke-width="4" stroke-opacity="0.8" stroke-linecap="butt" />
<path d="M1941.9544750346972,636 L2483.216518221852,636" stroke="#6d1d8f" stroke-width="4" stroke-opacity="0.8" stroke-linecap="butt" />
<path d="M1941.954010624736,642 L2483.215185500162,642" stroke="#6d1d8f" stroke-width="4" stroke-opacity="0.8" stroke-linecap="butt" />
<path d="M2483.2188407322355,648 L2483.3066181926224,648" stroke="#b52a35" stroke-width="4" stroke-opacity="0.8" stroke-linecap="round" />
<path d="M2483.218144075423,654 L2483.218608527255,654" stroke="#b52a35" stroke-width="4" stroke-opacity="0.8" stroke-linecap="round" />
<path d="M2483.2183763222743,660 L2483.306153782661,660" stroke="#b52a35" stroke-width="4" stroke-opacity="0.8" stroke-linecap="round" />
<path d="M2483.2176796654617,666 L2483.218144117294,666" stroke="#b52a35" stroke-width="4" stroke-opacity="0.8" stroke-linecap="round" />
<text x="986.8742664159632" y="682" font-size="12" font-family="Roboto" fill="#ddddddff">R#3 - 3860.1s</text>
<path d="M986.8742664159632,686 L986.8742664159632,746" stroke="white" stroke-width="1" fill="white" />
<path d="M986.8742664159632,690 L1941.9537784197555,690" stroke="#3774c4" stroke-width="4" stroke-opacity="0.8" stroke-linecap="butt" />
<path d="M986.8733375960409,696 L1941.953486648266,696" stroke="#3774c4" stroke-width="4" stroke-opacity="0.8" stroke-linecap="butt" />
<path d="M986.8747308259244,702 L1941.9537784197555,702" stroke="#3774c4" stroke-width="4" stroke-opacity="0.8" stroke-linecap="butt" />
<path d="M986.873802006002,708 L1941.953486648266,708" stroke="#3774c4" stroke-width="4" stroke-opacity="0.8" stroke-linecap="butt" />
<path d="M1941.9558686832872,714 L2483.216915458599,714" stroke="#6d1d8f" stroke-width="4" stroke-opacity="0.8" stroke-linecap="butt" />
<path d="M1941.9554042733262,720 L2483.216915458599,720" stroke="#6d1d8f" stroke-width="4" stroke-opacity="0.8" stroke-linecap="butt" />
<path d="M2483.2204662089703,726 L2483.308243669357,726" stroke="#b52a35" stroke-width="4" stroke-opacity="0.8" stroke-linecap="round" />
<path d="M2483.219305142197,732 L2483.2197695940285,732" stroke="#b52a35" stroke-width="4" stroke-opacity="0.8" stroke-linecap="round" />
<path d="M2483.219769552158,738 L2483.22023400399,738" stroke="#b52a35" stroke-width="4" stroke-opacity="0.8" stroke-linecap="round" />
<path d="M2483.2200017990094,744 L2483.307779259396,744" stroke="#b52a35" stroke-width="4" stroke-opacity="0.8" stroke-linecap="round" />
<path d="M986.8666036097338,762 L2970.0,762" stroke="white" stroke-width="12" />
<text x="990.8666036097338" y="766" font-size="10" font-family="Roboto" fill="#111111ff">JOB::job3 - 3860.02s -&gt;  11860.0s</text>
<path d="M986.867068019695,774 L2492.9030545750743,774" stroke="#42f5bc" stroke-width="4" stroke-opacity="0.8" stroke-linecap="butt" />
<path d="M986.8666036097338,780 L2969.999070750903,780" stroke="#f4d229" stroke-width="4" stroke-opacity="0.8" stroke-linecap="butt" />
<text x="996.8054886626388" y="796" font-size="12" font-family="Roboto" fill="#ddddddff">R#1 - 3900.1s</text>
<path d="M996.8054886626388,800 L996.8054886626388,1376" stroke="white" stroke-width="1" fill="white" />
<path d="M996.8054886626388,804 L1947.670754629002,804" stroke="#fcba03" stroke-width="4" stroke-opacity="0.8" stroke-linecap="butt" />
<path d="M996.8064174825612,810 L1947.673012530511,810" stroke="#fcba03" stroke-width="4" stroke-opacity="0.8" stroke-linecap="butt" />
<path d="M996.8059530726,816 L1947.673012530511,816" stroke="#fcba03" stroke-width="4" stroke-opacity="0.8" stroke-linecap="butt" />
<path d="M996.8068818925224,822 L1947.6732634695666,822" stroke="#fcba03" stroke-width="4" stroke-opacity="0.8" stroke-linecap="butt" />
<path d="M1947.6744249131762,828 L2485.631310743286,828" stroke="#38a816" stroke-width="4" stroke-opacity="0.8" stroke-linecap="butt" />
<path d="M1947.6748893231374,834 L2485.658456365359,834" stroke="#38a816" stroke-width="4" stroke-opacity="0.8" stroke-linecap="butt" />
<path d="M1947.6753537330985,840 L2485.658456365359,840" stroke="#38a816" stroke-width="4" stroke-opacity="0.8" stroke-linecap="butt" />
<path d="M1947.6758181430596,846 L2485.658456365359,846" stroke="#38a816" stroke-width="4" stroke-opacity="0.8" stroke-linecap="butt" />
<path d="M2485.660778875743,852 L2485.661243327575,852" stroke="#ff6038" stroke-width="4" stroke-opacity="0.8" stroke-linecap="round" />
<path d="M2485.6619399425167,858 L2485.6740151667627,858" stroke="#ff6038" stroke-width="4" stroke-opacity="0.8" stroke-linecap="round" />
<path d="M2485.6624043524776,864 L2485.674479576724,864" stroke="#ff6038" stroke-width="4" stroke-opacity="0.8" stroke-linecap="round" />
<path d="M2485.659617808969,870 L2485.660082260801,870" stroke="#ff6038" stroke-width="4" stroke-opacity="0.8" stroke-linecap="round" />
<path d="M2485.6600822189303,876 L2485.6605466707624,876" stroke="#ff6038" stroke-width="4" stroke-opacity="0.8" stroke-linecap="round" />
<path d="M2485.6603144657815,882 L2485.6607789176137,882" stroke="#ff6038" stroke-width="4" stroke-opacity="0.8" stroke-linecap="round" />
<path d="M2485.661011122594,888 L2485.6730863468406,888" stroke="#ff6038" stroke-width="4" stroke-opacity="0.8" stroke-linecap="round" />
<path d="M2485.6614755325554,894 L2485.6735507568014,894" stroke="#ff6038" stroke-width="4" stroke-opacity="0.8" stroke-linecap="round" />
<text x="1016.6372781627183" y="910" font-size="12" font-family="Roboto" fill="#ddddddff">R#2 - 3980.1s</text>
<path d="M1016.6372781627183,914 L1016.6372781627183,1394" stroke="white" stroke-width="1" fill="white" />
<path d="M1016.6372781627183,918 L1955.8118319336602,918" stroke="#fcba03" stroke-width="4" stroke-opacity="0.8" stroke-linecap="butt" />
<path d="M1016.6377425726795,924 L1955.8134048376508,924" stroke="#fcba03" stroke-width="4" stroke-opacity="0.8" stroke-linecap="butt" />
<path d="M1016.6382069826407,930 L1955.8134048376508,930" stroke="#fcba03" stroke-width="4" stroke-opacity="0.8" stroke-linecap="butt" />
<path d="M1016.6386713926019,936 L1955.8134048376508,936" stroke="#fcba03" stroke-width="4" stroke-opacity="0.8" stroke-linecap="butt" />
<path d="M1955.8145662812603,942 L2489.0449333754473,942" stroke="#38a816" stroke-width="4" stroke-opacity="0.8" stroke-linecap="butt" />
<path d="M1955.8150306912214,948 L2489.070053372413,948" stroke="#38a816" stroke-width="4" stroke-opacity="0.8" stroke-linecap="butt" />
<path d="M1955.8154951011827,954 L2489.070053372413,954" stroke="#38a816" stroke-width="4" stroke-opacity="0.8" stroke-linecap="butt" />
<path d="M1955.8159595111438,960 L2489.070053372413,960" stroke="#38a816" stroke-width="4" stroke-opacity="0.8" stroke-linecap="butt" />
<path d="M2489.0726081296484,966 L2489.0846833538944,966" stroke="#ff6038" stroke-width="4" stroke-opacity="0.8" stroke-linecap="round" />
<path d="M2489.0730725396093,972 L2489.0851477638557,972" stroke="#ff6038" stroke-width="4" stroke-opacity="0.8" stroke-linecap="round" />
<path d="M2489.0735369495706,978 L2489.0856121738166,978" stroke="#ff6038" stroke-width="4" stroke-opacity="0.8" stroke-linecap="round" />
<path d="M2489.074001359532,984 L2489.086076583778,984" stroke="#ff6038" stroke-width="4" stroke-opacity="0.8" stroke-linecap="round" />
<path d="M2489.0712148160233,990 L2489.071679267855,990" stroke="#ff6038" stroke-width="4" stroke-opacity="0.8" stroke-linecap="round" />
<path d="M2489.071679225984,996 L2489.0721436778163,996" stroke="#ff6038" stroke-width="4" stroke-opacity="0.8" stroke-linecap="round" />
<path d="M2489.071911472836,1002 L2489.0723759246675,1002" stroke="#ff6038" stroke-width="4" stroke-opacity="0.8" stroke-linecap="round" />
<path d="M2489.0723758827967,1008 L2489.072840334629,1008" stroke="#ff6038" stroke-width="4" stroke-opacity="0.8" stroke-linecap="round" />
<text x="1046.385194408465" y="1024" font-size="12" font-family="Roboto" fill="#ddddddff">R#3 - 4100.1s</text>
<path d="M1046.385194408465,1028 L1046.385194408465,1412" stroke="white" stroke-width="1" fill="white" />
<path d="M1046.385194408465,1032 L1963.8716728224997,1032" stroke="#fcba03" stroke-width="4" stroke-opacity="0.8" stroke-linecap="butt" />
<path d="M1046.385658818426,1038 L1963.8716728224997,1038" stroke="#fcba03" stroke-width="4" stroke-opacity="0.8" stroke-linecap="butt" />
<path d="M1046.386123228387,1044 L1963.8716728224997,1044" stroke="#fcba03" stroke-width="4" stroke-opacity="0.8" stroke-linecap="butt" />
<path d="M1046.3847299985036,1050 L1963.8706594117155,1050" stroke="#fcba03" stroke-width="4" stroke-opacity="0.8" stroke-linecap="butt" />
<path d="M1963.8737630860314,1056 L2491.3227151953556,1056" stroke="#38a816" stroke-width="4" stroke-opacity="0.8" stroke-linecap="butt" />
<path d="M1963.8732986760704,1062 L2491.3227151953556,1062" stroke="#38a816" stroke-width="4" stroke-opacity="0.8" stroke-linecap="butt" />
<path d="M1963.8728342661093,1068 L2491.297677807036,1068" stroke="#38a816" stroke-width="4" stroke-opacity="0.8" stroke-linecap="butt" />
<path d="M1963.8742274959927,1074 L2491.3227151953556,1074" stroke="#38a816" stroke-width="4" stroke-opacity="0.8" stroke-linecap="butt" />
<path d="M2491.3243410489267,1080 L2491.324805500759,1080" stroke="#ff6038" stroke-width="4" stroke-opacity="0.8" stroke-linecap="round" />
<path d="M2491.326663182474,1086 L2491.3387384067205,1086" stroke="#ff6038" stroke-width="4" stroke-opacity="0.8" stroke-linecap="round" />
<path d="M2491.324573295778,1092 L2491.32503774761,1092" stroke="#ff6038" stroke-width="4" stroke-opacity="0.8" stroke-linecap="round" />
<path d="M2491.3238766389654,1098 L2491.3243410907976,1098" stroke="#ff6038" stroke-width="4" stroke-opacity="0.8" stroke-linecap="round" />
<path d="M2491.326198772513,1104 L2491.338273996759,1104" stroke="#ff6038" stroke-width="4" stroke-opacity="0.8" stroke-linecap="round" />
<path d="M2491.325734362552,1110 L2491.337809586798,1110" stroke="#ff6038" stroke-width="4" stroke-opacity="0.8" stroke-linecap="round" />
<path d="M2491.3252699525906,1116 L2491.337345176837,1116" stroke="#ff6038" stroke-width="4" stroke-opacity="0.8" stroke-linecap="round" />
<path d="M2491.3250377057393,1122 L2491.3255021575715,1122" stroke="#ff6038" stroke-width="4" stroke-opacity="0.8" stroke-linecap="round" />
<text x="1086.0478441699947" y="1138" font-size="12" font-family="Roboto" fill="#ddddddff">R#4 - 4260.1s</text>
<path d="M1086.0478441699947,1142 L1086.0478441699947,1430" stroke="white" stroke-width="1" fill="white" />
<path d="M1086.0478441699947,1146 L1970.395650683302,1146" stroke="#fcba03" stroke-width="4" stroke-opacity="0.8" stroke-linecap="butt" />
<path d="M1086.0492373998784,1152 L1970.3962446049622,1152" stroke="#fcba03" stroke-width="4" stroke-opacity="0.8" stroke-linecap="butt" />
<path d="M1086.048772989917,1158 L1970.3962446049622,1158" stroke="#fcba03" stroke-width="4" stroke-opacity="0.8" stroke-linecap="butt" />
<path d="M1086.048308579956,1164 L1970.3962446049622,1164" stroke="#fcba03" stroke-width="4" stroke-opacity="0.8" stroke-linecap="butt" />
<path d="M1970.3987992784553,1170 L2492.45523045479,1170" stroke="#38a816" stroke-width="4" stroke-opacity="0.8" stroke-linecap="butt" />
<path d="M1970.3983348684942,1176 L2492.45523045479,1176" stroke="#38a816" stroke-width="4" stroke-opacity="0.8" stroke-linecap="butt" />
<path d="M1970.397870458533,1182 L2492.4549651061448,1182" stroke="#38a816" stroke-width="4" stroke-opacity="0.8" stroke-linecap="butt" />
<path d="M1970.3974060485718,1188 L2492.4549651061448,1188" stroke="#38a816" stroke-width="4" stroke-opacity="0.8" stroke-linecap="butt" />
<path d="M2492.457088555213,1194 L2492.4575530070447,1194" stroke="#ff6038" stroke-width="4" stroke-opacity="0.8" stroke-linecap="round" />
<path d="M2492.4568563083612,1200 L2492.4573207601934,1200" stroke="#ff6038" stroke-width="4" stroke-opacity="0.8" stroke-linecap="round" />
<path d="M2492.459178441909,1206 L2492.471253666155,1206" stroke="#ff6038" stroke-width="4" stroke-opacity="0.8" stroke-linecap="round" />
<path d="M2492.4563918984004,1212 L2492.456856350232,1212" stroke="#ff6038" stroke-width="4" stroke-opacity="0.8" stroke-linecap="round" />
<path d="M2492.4587140319477,1218 L2492.4707892561937,1218" stroke="#ff6038" stroke-width="4" stroke-opacity="0.8" stroke-linecap="round" />
<path d="M2492.4582496219864,1224 L2492.470324846233,1224" stroke="#ff6038" stroke-width="4" stroke-opacity="0.8" stroke-linecap="round" />
<path d="M2492.4577852120256,1230 L2492.4698604362716,1230" stroke="#ff6038" stroke-width="4" stroke-opacity="0.8" stroke-linecap="round" />
<path d="M2492.457552965174,1236 L2492.458017417006,1236" stroke="#ff6038" stroke-width="4" stroke-opacity="0.8" stroke-linecap="round" />
<text x="1135.627085087153" y="1252" font-size="12" font-family="Roboto" fill="#ddddddff">R#5 - 4460.1s</text>
<path d="M1135.627085087153,1256 L1135.627085087153,1448" stroke="white" stroke-width="1" fill="white" />
<path d="M1135.627085087153,1260 L1974.569766732044,1260" stroke="#fcba03" stroke-width="4" stroke-opacity="0.8" stroke-linecap="butt" />
<path d="M1135.6266206771918,1266 L1974.569479977937,1266" stroke="#fcba03" stroke-width="4" stroke-opacity="0.8" stroke-linecap="butt" />
<path d="M1135.6275494971142,1272 L1974.569766732044,1272" stroke="#fcba03" stroke-width="4" stroke-opacity="0.8" stroke-linecap="butt" />
<path d="M1135.6280139070752,1278 L1974.569766732044,1278" stroke="#fcba03" stroke-width="4" stroke-opacity="0.8" stroke-linecap="butt" />
<path d="M1974.572321405537,1284 L2492.837812035457,1284" stroke="#38a816" stroke-width="4" stroke-opacity="0.8" stroke-linecap="butt" />
<path d="M1974.5713925856146,1290 L2492.837812035457,1290" stroke="#38a816" stroke-width="4" stroke-opacity="0.8" stroke-linecap="butt" />
<path d="M1974.5718569955757,1296 L2492.837812035457,1296" stroke="#38a816" stroke-width="4" stroke-opacity="0.8" stroke-linecap="butt" />
<path d="M1974.5709281756533,1302 L2492.837812035457,1302" stroke="#38a816" stroke-width="4" stroke-opacity="0.8" stroke-linecap="butt" />
<path d="M2492.839437889028,1308 L2492.83990234086,1308" stroke="#ff6038" stroke-width="4" stroke-opacity="0.8" stroke-linecap="round" />
<path d="M2492.8396701358793,1314 L2492.8401345877114,1314" stroke="#ff6038" stroke-width="4" stroke-opacity="0.8" stroke-linecap="round" />
<path d="M2492.8417600225757,1320 L2492.8538355421174,1320" stroke="#ff6038" stroke-width="4" stroke-opacity="0.8" stroke-linecap="round" />
<path d="M2492.838973479067,1326 L2492.839437930899,1326" stroke="#ff6038" stroke-width="4" stroke-opacity="0.8" stroke-linecap="round" />
<path d="M2492.8412956126144,1332 L2492.8533710506185,1332" stroke="#ff6038" stroke-width="4" stroke-opacity="0.8" stroke-linecap="round" />
<path d="M2492.840831202653,1338 L2492.852906722195,1338" stroke="#ff6038" stroke-width="4" stroke-opacity="0.8" stroke-linecap="round" />
<path d="M2492.840366792692,1344 L2492.8524423937715,1344" stroke="#ff6038" stroke-width="4" stroke-opacity="0.8" stroke-linecap="round" />
<path d="M2492.8401345458406,1350 L2492.8405989976727,1350" stroke="#ff6038" stroke-width="4" stroke-opacity="0.8" stroke-linecap="round" />
<text x="1195.121523930056" y="1366" font-size="12" font-family="Roboto" fill="#ddddddff">R#6 - 4700.1s</text>
<path d="M1195.121523930056,1370 L1195.121523930056,1466" stroke="white" stroke-width="1" fill="white" />
<path d="M1195.121523930056,1374 L1976.1539271318259,1374" stroke="#fcba03" stroke-width="4" stroke-opacity="0.8" stroke-linecap="butt" />
<path d="M1195.121988340017,1380 L1976.1539271318259,1380" stroke="#fcba03" stroke-width="4" stroke-opacity="0.8" stroke-linecap="butt" />
<path d="M1195.1210595200946,1386 L1976.1539271318259,1386" stroke="#fcba03" stroke-width="4" stroke-opacity="0.8" stroke-linecap="butt" />
<path d="M1195.1224527499783,1392 L1976.1539271318259,1392" stroke="#fcba03" stroke-width="4" stroke-opacity="0.8" stroke-linecap="butt" />
<path d="M1976.1560173953576,1398 L2492.8863345394143,1398" stroke="#38a816" stroke-width="4" stroke-opacity="0.8" stroke-linecap="butt" />
<path d="M1976.1555529853965,1404 L2492.8863345394143,1404" stroke="#38a816" stroke-width="4" stroke-opacity="0.8" stroke-linecap="butt" />
<path d="M1976.1550885754352,1410 L2492.8863345394143,1410" stroke="#38a816" stroke-width="4" stroke-opacity="0.8" stroke-linecap="butt" />
<path d="M1976.156481805319,1416 L2492.8863345394143,1416" stroke="#38a816" stroke-width="4" stroke-opacity="0.8" stroke-linecap="butt" />
<path d="M2492.8879603929854,1422 L2492.888424844817,1422" stroke="#ff6038" stroke-width="4" stroke-opacity="0.8" stroke-linecap="round" />
<path d="M2492.8902825265327,1428 L2492.9023577507787,1428" stroke="#ff6038" stroke-width="4" stroke-opacity="0.8" stroke-linecap="round" />
<path d="M2492.8898181165714,1434 L2492.901893340818,1434" stroke="#ff6038" stroke-width="4" stroke-opacity="0.8" stroke-linecap="round" />
<path d="M2492.887495983024,1440 L2492.8879604348563,1440" stroke="#ff6038" stroke-width="4" stroke-opacity="0.8" stroke-linecap="round" />
<path d="M2492.8893537066106,1446 L2492.9014289308566,1446" stroke="#ff6038" stroke-width="4" stroke-opacity="0.8" stroke-linecap="round" />
<path d="M2492.8888892966493,1452 L2492.9009645208953,1452" stroke="#ff6038" stroke-width="4" stroke-opacity="0.8" stroke-linecap="round" />
<path d="M2492.888657049798,1458 L2492.8891215016297,1458" stroke="#ff6038" stroke-width="4" stroke-opacity="0.8" stroke-linecap="round" />
<path d="M2492.8881926398367,1464 L2492.8886570916684,1464" stroke="#ff6038" stroke-width="4" stroke-opacity="0.8" stroke-linecap="round" />
</svg>